<svg width="125" height="83" viewBox="0 0 125 83" fill="none" xmlns="http://www.w3.org/2000/svg">
<path d="M31.5674 20.6015H8.68674M31.5674 62.399H8.68674M31.5674 41.5004H0M75.6328 49.2813C75.6328 53.5787 79.1167 57.0623 83.4138 57.0623M83.4138 57.0623C87.7112 57.0623 91.1949 53.5787 91.1949 49.2813C91.1949 44.9839 87.7112 41.5003 83.4138 41.5003C79.1167 41.5003 75.6328 38.0167 75.6328 33.7193C75.6328 29.4219 79.1167 25.9383 83.4138 25.9383M83.4138 57.0623L83.4139 66.0718M83.4138 25.9383C87.7112 25.9383 91.1949 29.4219 91.1949 33.7193M83.4138 25.9383L83.4139 16.9286M121.338 41.5002C121.338 62.4451 104.359 79.4243 83.4139 79.4243C62.469 79.4243 45.4898 62.4451 45.4898 41.5002C45.4898 20.5554 62.469 3.57617 83.4139 3.57617C104.359 3.57617 121.338 20.5554 121.338 41.5002Z" stroke="white" stroke-width="7" stroke-miterlimit="10"/>
</svg>
