<svg width="5" height="20" viewBox="0 0 5 20" fill="none" xmlns="http://www.w3.org/2000/svg">
<path d="M4.33482 17.3748C4.33482 17.9759 4.10647 18.5523 3.7 18.9773C3.29353 19.4023 2.74224 19.6411 2.16741 19.6411C1.59258 19.6411 1.04129 19.4023 0.63482 18.9773C0.228351 18.5523 -6.96138e-08 17.9759 -9.47406e-08 17.3748C-1.19867e-07 16.7738 0.228351 16.1973 0.63482 15.7723C1.04129 15.3473 1.59258 15.1085 2.16741 15.1085C2.74224 15.1085 3.29353 15.3473 3.7 15.7723C4.10647 16.1973 4.33482 16.7738 4.33482 17.3748ZM4.33482 9.82051C4.33482 10.4216 4.10647 10.998 3.7 11.423C3.29353 11.848 2.74224 12.0868 2.16741 12.0868C1.59258 12.0868 1.04129 11.848 0.63482 11.423C0.228351 10.998 -3.85416e-07 10.4216 -4.10542e-07 9.82051C-4.35669e-07 9.21945 0.228351 8.64301 0.634819 8.218C1.04129 7.79299 1.59258 7.55422 2.16741 7.55422C2.74224 7.55422 3.29353 7.79299 3.7 8.218C4.10647 8.64301 4.33482 9.21945 4.33482 9.82051ZM4.33482 2.2662C4.33482 2.86726 4.10647 3.4437 3.7 3.86871C3.29353 4.29373 2.74224 4.5325 2.16741 4.5325C1.59258 4.5325 1.04129 4.29373 0.634819 3.86871C0.228351 3.4437 -7.01218e-07 2.86726 -7.26344e-07 2.2662C-7.51471e-07 1.66514 0.228351 1.08871 0.634819 0.663692C1.04129 0.23868 1.59258 -8.97182e-05 2.16741 -8.97444e-05C2.74224 -8.97707e-05 3.29353 0.23868 3.7 0.663692C4.10647 1.0887 4.33482 1.66514 4.33482 2.2662Z" fill="#4D4D4D"/>
</svg>
