<svg width="35" height="35" viewBox="0 0 35 35" fill="none" xmlns="http://www.w3.org/2000/svg">
<mask id="mask0_384_5365" style="mask-type:luminance" maskUnits="userSpaceOnUse" x="0" y="0" width="35" height="35">
<path d="M0 3.8147e-06H35V35H0V3.8147e-06Z" fill="white"/>
</mask>
<g mask="url(#mask0_384_5365)">
<path d="M30.2148 16.9333V10.6641C30.2148 9.53135 31.1329 8.61328 32.2656 8.61328C33.3983 8.61328 34.3164 9.53135 34.3164 10.6641V19.95C34.3164 23.0569 32.5609 25.8973 29.7821 27.287L26.1133 29.1211V33.2227H18.8672V24.2983C18.8672 22.5641 20.1811 21.1114 21.9064 20.9385C21.9144 20.9363 25.0399 20.4581 26.546 18.952L28.0813 17.4173C28.6545 16.8442 29.49 16.6762 30.2148 16.9333Z" fill="#FCE8D0"/>
<path d="M21.8032 1.77735C25.5479 1.77735 26.8529 5.22608 26.8529 7.24609C26.8529 11.3477 23.4814 13.678 17.5 18.8672C11.5185 13.678 8.14697 11.3477 8.14697 7.24609C8.14697 5.22608 9.45195 1.77735 13.1967 1.77735C15.4956 1.77735 16.7699 3.45557 17.5 4.79131C18.23 3.45557 19.5043 1.77735 21.8032 1.77735Z" fill="#FF7B79"/>
<path d="M4.78516 16.9333C5.50977 16.6763 6.34539 16.844 6.91865 17.4173L8.454 18.952C9.93009 20.428 13.0866 20.9366 13.0936 20.9385C14.8189 21.1114 16.1328 22.5641 16.1328 24.2983V33.2227H8.88672V29.1211L5.21787 27.287C2.43906 25.8973 0.683594 23.0569 0.683594 19.95V10.6641C0.683594 9.53135 1.60166 8.61328 2.73437 8.61328C3.86709 8.61328 4.78516 9.53135 4.78516 10.6641V16.9333Z" fill="#FCE8D0"/>
<path d="M26.8529 7.2461C26.8529 11.3477 23.4814 13.678 17.5 18.8672C11.5185 13.678 8.14697 11.3477 8.14697 7.2461C8.14697 5.22608 9.45195 1.77735 13.1967 1.77735C15.4956 1.77735 16.7699 3.45557 17.5 4.79131C18.23 3.45557 19.5043 1.77735 21.8032 1.77735C25.5479 1.77735 26.8529 5.22608 26.8529 7.2461Z" stroke="black" stroke-miterlimit="10" stroke-linecap="round" stroke-linejoin="round"/>
<path d="M27.4805 23.8184L30.9812 20.317C31.3523 19.9459 31.582 19.4332 31.582 18.8671C31.582 17.9744 31.0119 17.2148 30.2148 16.9332" stroke="black" stroke-miterlimit="10" stroke-linecap="round" stroke-linejoin="round"/>
<path d="M4.78516 16.9333C4.99912 16.8574 5.22881 16.8164 5.46875 16.8164C6.03477 16.8164 6.54746 17.0461 6.91865 17.4173L8.454 18.952C9.40898 19.9069 11.6997 20.7983 13.043 20.933L13.0936 20.9385C14.8189 21.1114 16.1328 22.5641 16.1328 24.2983V33.2227H8.88672V29.1211L5.21787 27.287C2.43906 25.8973 0.683594 23.0569 0.683594 19.95V10.6641C0.683594 9.53135 1.60166 8.61328 2.73437 8.61328C3.86709 8.61328 4.78516 9.53135 4.78516 10.6641V16.9333Z" stroke="black" stroke-miterlimit="10" stroke-linecap="round" stroke-linejoin="round"/>
<path d="M7.51953 23.8184L4.01885 20.317C3.64766 19.9459 3.41797 19.4332 3.41797 18.8671C3.41797 17.9744 3.98809 17.2148 4.78516 16.9332" stroke="black" stroke-miterlimit="10" stroke-linecap="round" stroke-linejoin="round"/>
<path d="M32.0605 26.25C32.0605 26.6275 31.7544 26.9336 31.377 26.9336C30.9995 26.9336 30.6934 26.6275 30.6934 26.25C30.6934 25.8725 30.9995 25.5664 31.377 25.5664C31.7544 25.5664 32.0605 25.8725 32.0605 26.25Z" fill="black"/>
<path d="M33.3206 23.8673C33.9624 22.6868 34.3164 21.3453 34.3164 19.95V10.6641C34.3164 9.53135 33.3984 8.61328 32.2656 8.61328C31.1329 8.61328 30.2148 9.53135 30.2148 10.6641V16.9333C30.0009 16.8574 29.7712 16.8164 29.5312 16.8164C28.9652 16.8164 28.4525 17.0462 28.0813 17.4174L26.546 18.952C25.5911 19.9069 23.3003 20.7983 21.9571 20.933L21.9064 20.9385C20.1811 21.1115 18.8672 22.5641 18.8672 24.2984V33.2227H26.1133V29.1211L28.7286 27.8137" stroke="black" stroke-miterlimit="10" stroke-linecap="round" stroke-linejoin="round"/>
</g>
</svg>
