<svg width="38" height="32" viewBox="0 0 38 32" fill="none" xmlns="http://www.w3.org/2000/svg">
<path d="M24.9345 3.93023C26.3221 1.7966 27.8314 0.828857 30.3977 0.828857C31.9413 0.828857 33.4703 1.35471 34.6334 2.38116C35.7282 3.34725 36.4047 4.68377 36.4047 6.15596C36.4047 8.49498 35.2493 10.7362 33.9323 12.6043C33.1745 13.6793 32.3212 14.6927 31.4316 15.6604C30.5203 16.6517 29.5633 17.6016 28.5891 18.5309L28.5494 18.5688L24.6779 19.7042L24.5944 19.5321C24.5682 19.4781 24.5395 19.4253 24.5096 19.3734C24.1616 18.7683 23.6015 18.3347 22.9271 18.1541L18.0462 16.8472L18.0128 16.8232C17.8724 16.7225 17.7284 16.6271 17.5841 16.5322L17.563 16.5183L17.5454 16.5001C16.6529 15.5729 15.7903 14.6089 14.9972 13.5948C14.339 12.753 13.7216 11.8679 13.1989 10.9351C12.3785 9.47078 11.7759 7.85358 11.7759 6.15589C11.7759 4.6837 12.4524 3.34717 13.5471 2.38109C14.7102 1.35471 16.2391 0.828857 17.7827 0.828857C20.349 0.828857 21.8583 1.79652 23.246 3.93023C23.4327 4.21746 23.7497 4.38742 24.092 4.38742C24.4344 4.38742 24.7478 4.21731 24.9345 3.93023Z" fill="#FF7B79"/>
<path fill-rule="evenodd" clip-rule="evenodd" d="M21.9144 11.5517H23.0458C23.3366 11.5517 23.5706 11.3155 23.5706 11.024V9.89441H24.6098V11.024C24.6098 11.3155 24.8439 11.5517 25.1382 11.5517H26.266V12.5891H25.1382C24.8438 12.5891 24.6098 12.8253 24.6098 13.1165V14.2464H23.5706V13.1165C23.5706 12.8253 23.3365 12.5891 23.0458 12.5891H21.9144V11.5517ZM22.5173 13.6442V14.7737C22.5173 15.0653 22.7514 15.3015 23.0457 15.3015H25.1382C25.429 15.3015 25.663 15.0653 25.663 14.7737V13.6442H26.7944C27.0853 13.6442 27.3228 13.408 27.3228 13.1165V11.024C27.3228 10.7328 27.0852 10.4962 26.7944 10.4962H25.663V9.36668C25.663 9.07552 25.429 8.83894 25.1382 8.83894H23.0457C22.7513 8.83894 22.5173 9.07552 22.5173 9.36668V10.4962H21.3859C21.0951 10.4962 20.8575 10.7328 20.8575 11.024V13.1165C20.8575 13.408 21.0951 13.6442 21.3859 13.6442H22.5173ZM24.092 7.8761C21.7796 7.8761 19.8965 9.75754 19.8965 12.0703C19.8965 14.3833 21.7796 16.2647 24.092 16.2647C26.4043 16.2647 28.2839 14.3833 28.2839 12.0703C28.2839 9.75754 26.4043 7.8761 24.092 7.8761ZM24.092 17.3198C26.9859 17.3198 29.3408 14.9649 29.3408 12.0703C29.3408 9.17592 26.9859 6.82108 24.092 6.82108C21.1945 6.82108 18.8396 9.17599 18.8396 12.0703C18.8396 14.9649 21.1945 17.3198 24.092 17.3198ZM34.5755 22.0168L24.3721 25.9482C24.2622 25.99 24.1523 26.0333 24.0388 26.0776C22.5457 26.6592 20.6838 27.383 19.251 26.9667L13.8142 25.3882C12.8992 25.1229 12.0019 25.1994 11.1472 25.6155L9.49806 26.417L6.44447 19.0831C7.7106 18.4838 9.05474 17.8447 10.406 17.1847C13.0055 15.9133 14.5057 15.3518 17.6125 17.5553C17.6657 17.5914 17.7224 17.618 17.7827 17.6343L22.7124 18.955C23.1699 19.0777 23.5529 19.3735 23.7941 19.7885C24.0318 20.2031 24.0956 20.6836 23.975 21.1418C23.8509 21.6 23.5566 21.9841 23.1416 22.2235C22.7267 22.4629 22.2443 22.5271 21.7868 22.4044L15.2364 20.6492C14.9562 20.5736 14.6654 20.7407 14.5909 21.0222C14.5165 21.3038 14.6831 21.5929 14.9633 21.6685L21.5137 23.4237C22.2443 23.6194 23.0104 23.5177 23.6664 23.1375C24.3261 22.7569 24.7978 22.1455 24.9929 21.4149C25.078 21.0961 25.1064 20.7705 25.0815 20.4503L31.905 18.4479C34.1606 17.7865 35.7281 18.0401 36.0934 19.126C36.4409 20.1549 35.6891 21.587 34.5755 22.0168ZM9.22854 28.9612C9.28883 28.8172 9.28883 28.6569 9.22854 28.5101L4.80247 17.884C4.70675 17.6584 4.48683 17.5219 4.25635 17.5219C4.18188 17.5219 4.10742 17.5365 4.03295 17.567L1.41914 18.6523C1.27375 18.7133 1.16025 18.8261 1.09995 18.97C1.03966 19.114 1.0432 19.2743 1.1035 19.4211L5.52594 30.0472C5.65362 30.3462 5.9976 30.4884 6.29554 30.3643L8.90935 29.279C9.05474 29.218 9.17178 29.1052 9.22854 28.9612ZM12.0019 6.15602C12.0019 9.06384 13.8177 12.3022 17.7083 16.3434C17.8501 16.4367 17.9991 16.5353 18.1445 16.6395L22.9856 17.9358C23.7161 18.1315 24.3261 18.6022 24.7056 19.2608C24.7375 19.3175 24.7695 19.375 24.7978 19.4335L28.433 18.3674C32.2775 14.6996 36.1787 10.3902 36.1787 6.15602C36.1787 3.34323 33.5862 1.0551 30.3978 1.0551C28.0039 1.0551 26.525 1.89561 25.1242 4.05367C24.8936 4.40406 24.5106 4.61366 24.0921 4.61366C23.6736 4.61366 23.287 4.40406 23.0566 4.05367C21.6557 1.89561 20.1768 1.0551 17.7829 1.0551C14.5944 1.0551 12.0019 3.34331 12.0019 6.15602ZM37.0935 18.7873C36.8275 18.0017 36.1927 17.4307 35.3025 17.1804C34.3485 16.9108 33.1037 16.9966 31.6071 17.4357L30.5892 17.7343C34.0789 14.2282 37.2318 10.2346 37.2318 6.15602C37.2318 2.76131 34.1676 0 30.3977 0C27.6279 0 25.8439 1.00791 24.2374 3.47882C24.1912 3.54794 24.1274 3.55864 24.092 3.55864C24.0565 3.55864 23.9891 3.54801 23.943 3.47882C22.3365 1.00791 20.5526 0 17.7827 0C14.0128 0 10.9486 2.76131 10.9486 6.15602C10.9486 7.92501 11.5196 9.74616 12.69 11.723C13.3319 12.8083 14.1688 13.9474 15.2115 15.1688C13.3319 14.6798 11.8459 15.3061 9.94138 16.2367C8.61141 16.8864 7.28861 17.5162 6.03665 18.1078L5.77421 17.4783C5.42668 16.6428 4.46557 16.2452 3.62859 16.5924L1.01479 17.6777C0.606962 17.8469 0.291315 18.1628 0.124598 18.5675C-0.0421185 18.9721 -0.0421186 19.4193 0.128141 19.8264L4.55421 30.4529C4.81664 31.0834 5.43022 31.464 6.07214 31.464C6.28137 31.464 6.49421 31.424 6.6999 31.3388L9.31371 30.2532C9.72153 30.084 10.0372 29.768 10.2039 29.3634C10.3706 28.9587 10.3706 28.5115 10.2004 28.1043L9.90596 27.3925L11.6082 26.5645C12.2289 26.2619 12.8566 26.2087 13.5198 26.4017L18.9567 27.9799C19.3539 28.0962 19.7689 28.1459 20.1873 28.1459C21.6343 28.1459 23.1487 27.5564 24.4219 27.0606C24.5354 27.017 24.6453 26.9741 24.7517 26.9326L34.955 23.0013C36.6041 22.365 37.6255 20.3567 37.0935 18.7873Z" fill="black"/>
</svg>
