<svg width="3535" height="1914" viewBox="0 0 3535 1914" fill="none" xmlns="http://www.w3.org/2000/svg">
<path d="M3280.48 1781.35C3280.48 1826.05 3276.35 1869.78 3268.52 1912.15H86.8425C79.1837 1877.1 75.1841 1840.56 75.1841 1803.13C75.1841 1544.84 265.633 1332.24 510.417 1304.67C533.138 741.728 985.645 292.404 1540.48 292.404C2021.24 292.404 2425.2 629.769 2539.19 1086.2C2559.15 1084.41 2579.31 1083.48 2599.74 1083.48C2975.7 1083.48 3280.48 1395.96 3280.48 1781.35Z" fill="white"/>
<path d="M2343.38 1912.15H84.7572C77.0558 1877.1 73.0137 1840.56 73.0137 1803.13C73.0137 1544.84 265.25 1332.24 512.374 1304.67C526.074 968.071 694.908 672.094 948.159 488.544L2343.38 1912.15Z" fill="#A8866B"/>
<path d="M1766.42 1601.97C2169.52 1601.97 2496.3 1275.27 2496.3 872.276C2496.3 469.279 2169.52 142.586 1766.42 142.586C1363.31 142.586 1036.53 469.279 1036.53 872.276C1036.53 1275.27 1363.31 1601.97 1766.42 1601.97Z" fill="#FFBC74"/>
<path d="M2448.65 872.234C2448.65 1063.14 2370.23 1235.72 2243.82 1359.5L1279.02 394.962C1402.84 268.582 1575.46 190.186 1766.42 190.186C2143.19 190.186 2448.65 495.563 2448.65 872.234Z" fill="#EEF5FF"/>
<path d="M2243.82 1359.5C2120.76 1480.05 1952.23 1554.32 1766.42 1554.32C1389.6 1554.32 1084.15 1248.95 1084.15 872.234C1084.15 686.387 1158.48 517.98 1279.02 394.962L2243.82 1359.5Z" fill="#C8CBF8"/>
<path d="M2065.45 872.276C2065.45 894.821 2062.98 916.77 2058.22 937.869C2057.2 942.506 2056.05 947.1 2054.77 951.651C2035.41 1022.14 1990.86 1082.24 1931.42 1121.63C1884.11 1152.98 1827.39 1171.27 1766.37 1171.27C1730.42 1171.27 1695.96 1164.93 1664 1153.32C1638.3 1143.96 1614.26 1131.2 1592.44 1115.55C1531.33 1071.82 1487.42 1005.63 1472.7 929.064C1469.17 910.688 1467.3 891.716 1467.3 872.276C1467.3 813.744 1484.11 759.126 1513.21 713.058C1517 707.018 1521.04 701.105 1525.25 695.362C1544.18 669.627 1567.12 647.039 1593.12 628.493C1604.99 620.071 1617.45 612.499 1630.52 605.821C1671.28 585.02 1717.4 573.279 1766.33 573.279C1778.46 573.279 1790.42 574.002 1802.16 575.406C1857.77 582.042 1908.7 603.906 1950.61 636.745C2020.56 691.491 2065.45 776.609 2065.45 872.276Z" fill="#929AEA"/>
<path d="M1538.23 704.848C1556.14 680.517 1577.84 659.12 1602.48 641.595C1604.35 642.913 1606.14 644.402 1607.88 645.891C1614.26 651.293 1620.65 656.653 1627.03 662.013C1631.67 665.926 1636.64 670.35 1637.71 676.39C1638.73 682.388 1633.11 689.535 1627.41 687.408C1628.52 690.726 1629.07 694.171 1629.15 697.659C1623.54 699.02 1617.24 700.339 1612.39 697.234C1607.54 694.129 1607.54 684.77 1613.28 683.962C1606.09 683.92 1599.07 679.921 1595.37 673.753C1593.33 670.35 1590.78 665.543 1586.9 666.607C1583.2 667.628 1583.2 672.732 1581.88 676.348C1579.97 681.665 1573.08 684.558 1567.93 682.176C1565.88 683.877 1566.91 687.28 1568.78 689.152C1570.61 691.023 1573.16 692.342 1574.39 694.682C1577.37 700.169 1570.78 706.55 1564.52 706.89C1558.31 707.23 1552.31 704.295 1546.1 703.827C1543.46 703.7 1540.78 704.04 1538.23 704.848Z" fill="#EEF5FF"/>
<path d="M1730.76 1035.83C1728.68 1041.53 1726.59 1047.23 1724.51 1052.93C1720.72 1063.4 1716.68 1074.16 1708.89 1082.16C1701.7 1089.56 1691.23 1094.62 1687.79 1104.32C1686.21 1108.74 1686.34 1113.63 1685.06 1118.14C1682.94 1125.72 1677.15 1131.67 1671.19 1136.73C1670.64 1137.2 1670.09 1137.67 1669.53 1138.14C1645.24 1129.29 1622.47 1117.21 1601.8 1102.4C1601.88 1101.51 1601.92 1100.58 1601.97 1099.68C1602.43 1078.92 1587.71 1061.48 1576.05 1044.34C1564.4 1027.2 1555.16 1003.97 1566.44 986.532C1569.8 981.343 1574.86 974.962 1571.29 969.985C1568.69 966.412 1563.46 966.625 1559.16 965.561C1551.21 963.562 1545.8 956.543 1540.06 950.673C1534.36 944.803 1526.23 939.443 1518.49 942.081C1517.08 932.637 1504.61 930.893 1495.38 928.426C1493.04 927.788 1490.74 926.98 1488.53 925.959C1485.17 908.561 1483.42 890.61 1483.42 872.234C1483.42 816.85 1499.34 765.167 1526.87 721.566C1527.72 726.415 1530.95 730.796 1535.72 731.902C1538.78 732.625 1542.18 732.03 1545.08 733.263C1549.42 735.093 1551.25 740.325 1554.99 743.175C1557.97 745.514 1561.89 746.152 1565.03 748.237C1568.18 750.321 1570.27 755.128 1567.54 757.723C1577.42 758.148 1583.76 746.62 1583.58 736.752C1583.41 726.883 1579.29 717.354 1579.5 707.486C1586.27 707.018 1593.29 706.592 1599.67 708.847C1606.05 711.144 1611.71 716.929 1611.62 723.692C1617.54 724.628 1619.45 714.334 1625.41 713.313C1631.11 712.377 1633.66 720.034 1634.77 725.692C1636.86 736.284 1641.79 746.28 1648.94 754.32C1653.75 759.722 1659.92 766.953 1656 773.079C1650.98 780.906 1637.07 774.142 1630.13 780.353C1633.58 784.776 1638.52 787.967 1643.96 789.371C1637.79 803.833 1614.69 799.665 1603.46 810.639C1598.52 815.489 1596.6 822.592 1592.9 828.463C1588.01 836.247 1580.1 841.607 1573.59 848.158C1567.08 854.666 1561.59 863.769 1563.71 872.702C1564.95 877.934 1567.54 885.506 1562.4 887.122C1553.97 881.337 1551.89 866.874 1541.72 865.598C1532.57 864.449 1526.31 875.722 1517.17 877.253C1511.85 878.147 1505.59 875.637 1501.3 878.912C1496.83 882.273 1497.72 889.121 1499.55 894.353C1502.44 902.733 1508.91 912.049 1517.68 910.688C1522.36 909.965 1526.57 906.094 1531.25 906.902C1535.67 907.668 1538.27 912.134 1540.27 916.133C1543.89 923.321 1547.5 930.51 1551.12 937.699C1554.78 944.973 1560.01 953.311 1568.14 953.438C1571.88 953.523 1575.33 951.737 1578.82 950.29C1596.52 942.974 1617.67 944.463 1634.18 954.289C1639.92 957.692 1645.24 962.073 1651.58 964.073C1659.15 966.412 1668.94 965.944 1672.94 972.75C1676 977.94 1674.04 985.341 1678.09 989.808C1680.21 992.147 1683.4 993.041 1686.51 993.849C1696.25 996.359 1706 998.911 1715.78 1001.42C1721.4 1002.87 1727.4 1004.57 1731.06 1009.08C1736.89 1016.35 1733.95 1027.07 1730.76 1035.83Z" fill="#EEF5FF"/>
<path d="M1799.86 591.783C1793.48 598.504 1800.33 609.394 1799.31 618.582C1798.03 630.025 1785.31 635.937 1774.46 639.638C1773.44 645.21 1783.82 647.635 1783.18 653.293C1783.01 654.696 1782.16 655.887 1781.22 656.993C1772.93 666.607 1759.35 669.329 1746.85 671.499C1750.84 676.944 1749.14 685.664 1743.4 689.194C1736.97 693.15 1728 690.683 1721.83 694.98C1717.15 698.255 1715.57 704.338 1712.98 709.442C1710.38 714.589 1704.81 719.481 1699.49 717.312C1697.23 716.376 1695.62 714.334 1693.4 713.271C1690.72 711.995 1687.28 712.165 1685.23 710.038C1682.34 706.975 1684.47 701.998 1684.13 697.787C1683.36 689.705 1672.9 684.43 1673.83 676.391C1674.3 672.52 1677.79 669.287 1681.7 669.117C1676.94 669.244 1673.28 664.395 1672.72 659.673C1672.17 654.952 1673.79 650.23 1674.85 645.593C1675.92 640.957 1676.3 635.725 1673.66 631.726C1671.75 628.833 1668.6 627.132 1665.45 625.728C1657.45 622.24 1648.77 620.326 1640 620.198C1639.28 620.198 1638.56 620.198 1637.88 620.198C1676.43 600.503 1720.12 589.401 1766.38 589.401C1777.86 589.401 1789.14 590.082 1800.24 591.4C1800.12 591.485 1799.99 591.613 1799.86 591.783Z" fill="#EEF5FF"/>
<path d="M1599.58 919.706C1604.77 916.856 1611.41 916.728 1616.69 919.408C1618.05 920.088 1619.5 921.279 1619.28 922.768C1619.16 923.662 1618.48 924.385 1617.79 924.98C1615.41 927.107 1612.18 929.021 1609.2 927.873C1605.67 926.512 1604.09 921.237 1600.31 921.237C1600.31 920.641 1601.12 920.174 1601.63 920.471L1599.58 919.706Z" fill="#EEF5FF"/>
<path d="M2049.41 872.276C2049.41 893.587 2047.07 914.388 2042.56 934.339C2040.77 934.424 2038.99 934.296 2037.16 933.828C2024.01 930.553 2019.67 914.644 2014.44 902.138C2010.27 892.184 2004.14 882.996 1996.48 875.381C1995.42 874.318 1994.18 873.212 1992.69 873.042C1987.54 872.404 1987.8 880.741 1990.31 885.25C1997.29 897.884 2004.35 910.56 2011.33 923.236C2017.54 934.509 2027.28 947.44 2039.28 947.398C2020.94 1014.1 1978.82 1070.97 1922.57 1108.23C1919.51 1097.9 1914.23 1088.2 1907.08 1080.11C1904.96 1077.73 1902.62 1075.35 1901.68 1072.33C1900.66 1069.06 1901.43 1065.48 1902.15 1062.08C1904.32 1052.47 1906.49 1042.81 1908.66 1033.2C1910.11 1026.86 1911.17 1019.29 1906.57 1014.73C1904.83 1013.03 1902.53 1012.01 1900.83 1010.23C1895.26 1004.27 1900.11 994.529 1898.87 986.447C1897.3 976.11 1885.81 970.113 1875.39 969.432C1864.92 968.751 1859.26 969.602 1848.79 968.964C1832.45 967.943 1817.94 958.542 1804.33 949.439C1800.63 946.972 1796.71 944.292 1794.76 940.251C1792.37 935.359 1793.35 929.574 1794.41 924.215C1798.03 905.583 1797.82 887.462 1812.46 875.339C1815.31 872.999 1818.5 870.958 1820.33 867.767C1823.35 862.493 1822.03 855.048 1826.45 850.88C1830.92 846.711 1838.03 848.625 1844.03 847.86C1857.9 846.073 1867.34 829.483 1881.34 830.206C1899.51 831.1 1906.66 859.813 1924.83 860.153C1936.95 860.408 1946.7 847.222 1958.7 848.753C1965.25 849.604 1970.4 854.666 1976.4 857.388C1982.44 860.11 1991.71 858.664 1992.65 852.113C1993.59 845.605 1985.8 841.819 1979.8 839.012C1970.57 834.715 1962.57 827.782 1956.95 819.274C1955.93 824.889 1954.95 830.547 1953.93 836.162C1944.44 831.951 1939.8 821.486 1934.95 812.341C1930.15 803.153 1922.66 793.497 1912.28 793.411C1917.08 800.813 1921.98 808.597 1922.74 817.36C1923.08 821.188 1922.32 825.485 1919.25 827.824C1916.19 830.164 1910.57 828.675 1910.36 824.847C1910.23 823.273 1911 821.827 1911.25 820.295C1911.89 816.339 1909.21 812.638 1906.06 810.171C1900.57 805.918 1893.34 804.003 1886.49 805.109C1876.49 806.683 1868.49 813.957 1860.45 820.125C1852.41 826.293 1842.41 831.823 1832.62 829.271C1822.79 826.718 1817.26 811.745 1825.77 806.258C1830.28 803.365 1836.41 804.301 1840.96 801.536C1849.35 796.389 1846.45 783.33 1840.75 775.248C1837.47 770.611 1833.39 765.039 1835.69 759.849C1836.96 756.957 1839.98 755.128 1841.22 752.235C1844.96 743.387 1830.16 733.561 1835.3 725.436C1837.52 721.948 1842.67 721.31 1846.37 723.182C1850.07 725.011 1852.45 728.712 1854.11 732.498C1859.64 745.089 1858.28 760.445 1850.62 771.845C1857.51 774.78 1864.62 768.187 1868.58 761.806C1872.53 755.425 1876.96 747.726 1884.41 747.173C1887.55 746.918 1890.62 748.109 1893.68 748.917C1906.49 752.278 1920.87 749.13 1931.12 740.707C1935.38 737.219 1939.17 732.03 1938.02 726.627C1937.34 723.309 1934.95 720.672 1933.63 717.524C1930.4 709.655 1936.32 699.531 1944.74 698.425C1944.4 691.704 1935.21 688.471 1929.25 691.491C1923.25 694.511 1920.15 701.275 1918.32 707.698C1916.49 714.164 1915.3 721.012 1911.42 726.5C1909.59 729.052 1906.96 731.307 1903.85 731.434C1897.13 731.689 1893.94 722.671 1887.72 720.162C1885.09 719.056 1882.02 719.268 1879.38 718.12C1873.9 715.738 1872.19 708.294 1874.24 702.679C1876.28 697.064 1880.96 692.853 1885.47 688.939C1894.66 680.899 1903.85 672.86 1913 664.82C1918.96 659.631 1925.12 654.271 1932.53 651.463C1935.21 650.443 1937.93 649.762 1940.7 649.422C2006.9 701.19 2049.41 781.756 2049.41 872.276Z" fill="#EEF5FF"/>
<path d="M1821.86 745.174C1822.5 744.578 1823.31 743.983 1824.2 744.11C1825.43 744.238 1826.11 745.557 1826.54 746.705C1828.2 751.129 1829.39 756.234 1827.39 760.53C1825.39 764.826 1818.97 766.485 1815.73 763.465C1812.2 760.147 1816.63 749.896 1821.86 745.174Z" fill="#EEF5FF"/>
<path d="M1555.33 908.476C1561.42 905.413 1568.61 905.966 1575.33 906.944C1580.9 907.753 1586.9 909.071 1590.61 913.325C1591.24 914.048 1591.8 914.899 1591.88 915.877C1592.05 918.302 1589.16 919.748 1586.78 919.876C1584.1 920.046 1581.37 919.408 1579.03 918.047C1575.8 916.175 1573.29 913.027 1569.71 911.921C1566.86 911.028 1563.76 911.581 1560.78 911.794C1557.8 912.006 1554.44 911.666 1552.4 909.454C1552.86 908.688 1553.97 908.348 1554.78 908.688L1555.33 908.476Z" fill="#EEF5FF"/>
<path d="M2198.54 1011.29C2200.5 1005.21 2197.14 998.698 2191.1 996.741L1770.89 861.514L1763.78 883.506L2183.99 1018.73C2190.08 1020.69 2196.59 1017.37 2198.54 1011.29Z" fill="#234460"/>
<path d="M2149.87 1656.03L2147.44 1651.05C2151.27 1649.18 2155.06 1647.27 2158.85 1645.35L2161.36 1650.29C2157.53 1652.2 2153.7 1654.12 2149.87 1656.03Z" fill="#4C7DE6"/>
<path d="M1765.86 1744.51C1757.31 1744.51 1748.72 1744.38 1740.21 1744.13L1740.38 1738.6C1748.8 1738.85 1757.35 1738.98 1765.86 1738.98V1744.51ZM1778.67 1744.47L1778.59 1738.94C1787.01 1738.81 1795.61 1738.6 1804.07 1738.21L1804.33 1743.74C1795.82 1744.08 1787.18 1744.34 1778.67 1744.47ZM1727.4 1743.66C1718.85 1743.28 1710.25 1742.77 1701.79 1742.17L1702.21 1736.64C1710.64 1737.28 1719.19 1737.75 1727.66 1738.13L1727.4 1743.66ZM1817.14 1743.06L1816.79 1737.53C1825.3 1737.02 1833.86 1736.43 1842.24 1735.7L1842.71 1741.23C1834.33 1741.96 1825.69 1742.6 1817.14 1743.06ZM1689.02 1741.15C1680.47 1740.38 1671.87 1739.53 1663.49 1738.51L1664.13 1733.02C1672.47 1734 1680.98 1734.9 1689.49 1735.62L1689.02 1741.15ZM1855.47 1740.04L1854.92 1734.51C1863.39 1733.66 1871.94 1732.64 1880.24 1731.58L1880.96 1737.07C1872.58 1738.17 1864.02 1739.15 1855.47 1740.04ZM1650.77 1736.94C1642.3 1735.83 1633.79 1734.56 1625.41 1733.2L1626.3 1727.71C1634.64 1729.07 1643.11 1730.3 1651.54 1731.41L1650.77 1736.94ZM1893.64 1735.32L1892.83 1729.83C1901.21 1728.6 1909.68 1727.24 1917.98 1725.79L1918.95 1731.24C1910.62 1732.73 1902.06 1734.09 1893.64 1735.32ZM1612.73 1731.03C1604.26 1729.54 1595.8 1727.88 1587.54 1726.18L1588.69 1720.73C1596.9 1722.43 1605.33 1724.09 1613.71 1725.58L1612.73 1731.03ZM1931.55 1728.94L1930.53 1723.5C1938.87 1721.92 1947.25 1720.18 1955.5 1718.35L1956.7 1723.75C1948.4 1725.58 1939.93 1727.32 1931.55 1728.94ZM1575.03 1723.45C1566.69 1721.58 1558.31 1719.58 1550.1 1717.5L1551.46 1712.14C1559.63 1714.22 1567.97 1716.22 1576.22 1718.05L1575.03 1723.45ZM1969.16 1720.86L1967.89 1715.46C1976.1 1713.5 1984.4 1711.42 1992.61 1709.2L1994.05 1714.56C1985.8 1716.78 1977.42 1718.9 1969.16 1720.86ZM1537.67 1714.22C1529.46 1712.01 1521.17 1709.63 1513 1707.16L1514.61 1701.84C1522.7 1704.31 1530.95 1706.65 1539.12 1708.86L1537.67 1714.22ZM2006.39 1711.12L2004.86 1705.8C2013.12 1703.42 2021.33 1700.95 2029.28 1698.44L2030.94 1703.72C2022.94 1706.27 2014.69 1708.74 2006.39 1711.12ZM1500.7 1703.33C1492.49 1700.7 1484.28 1697.97 1476.32 1695.12L1478.15 1689.89C1486.11 1692.7 1494.23 1695.42 1502.4 1698.02L1500.7 1703.33ZM2043.16 1699.76L2041.41 1694.53C2049.45 1691.85 2057.58 1689 2065.45 1686.11L2067.37 1691.3C2059.41 1694.19 2051.24 1697.04 2043.16 1699.76ZM1464.19 1690.79C1456.11 1687.81 1448.07 1684.7 1440.19 1681.51L1442.28 1676.36C1450.07 1679.51 1458.11 1682.62 1466.11 1685.6L1464.19 1690.79ZM2079.36 1686.74L2077.36 1681.6C2085.28 1678.53 2093.24 1675.34 2101.02 1672.11L2103.15 1677.22C2095.32 1680.49 2087.32 1683.68 2079.36 1686.74ZM1428.32 1676.62C1420.41 1673.3 1412.5 1669.81 1404.75 1666.28L1407.05 1661.26C1414.71 1664.75 1422.58 1668.2 1430.45 1671.52L1428.32 1676.62ZM2114.94 1672.15L2112.72 1667.09C2120.47 1663.73 2128.25 1660.16 2135.91 1656.54L2138.29 1661.56C2130.59 1665.22 2122.72 1668.75 2114.94 1672.15ZM1393.09 1660.84C1385.39 1657.18 1377.65 1653.39 1370.03 1649.48L1372.54 1644.55C1380.12 1648.42 1387.82 1652.2 1395.48 1655.82L1393.09 1660.84ZM1358.63 1643.57C1351.1 1639.57 1343.52 1635.4 1336.12 1631.19L1338.84 1626.38C1346.2 1630.55 1353.74 1634.68 1361.22 1638.68L1358.63 1643.57ZM1324.97 1624.81C1317.57 1620.47 1310.21 1615.96 1303.02 1611.45L1305.95 1606.77C1313.1 1611.24 1320.42 1615.71 1327.78 1620.05L1324.97 1624.81ZM1292.21 1604.56C1285.02 1599.88 1277.83 1595.08 1270.89 1590.27L1274.04 1585.72C1280.98 1590.48 1288.08 1595.29 1295.23 1599.92L1292.21 1604.56ZM1260.34 1582.87C1253.45 1577.93 1246.51 1572.83 1239.66 1567.64L1243.02 1563.21C1249.83 1568.36 1256.72 1573.42 1263.57 1578.32L1260.34 1582.87ZM1229.49 1559.85C1222.81 1554.62 1216.09 1549.22 1209.49 1543.78L1213.03 1539.52C1219.58 1544.97 1226.26 1550.33 1232.9 1555.52L1229.49 1559.85ZM1199.71 1535.48C1193.24 1529.95 1186.77 1524.25 1180.43 1518.51L1184.14 1514.42C1190.39 1520.12 1196.86 1525.78 1203.28 1531.27L1199.71 1535.48ZM1171.03 1509.83C1164.86 1504.09 1158.65 1498.09 1152.56 1492.05L1156.48 1488.09C1162.56 1494.09 1168.73 1500.05 1174.86 1505.75L1171.03 1509.83ZM1143.5 1482.99C1137.59 1476.95 1131.63 1470.74 1125.8 1464.44L1129.89 1460.7C1135.67 1466.95 1141.59 1473.16 1147.46 1479.16L1143.5 1482.99ZM1117.16 1454.96C1111.5 1448.66 1105.85 1442.15 1100.31 1435.64L1104.53 1432.07C1110.02 1438.54 1115.63 1445 1121.29 1451.26L1117.16 1454.96ZM1092.1 1425.78C1086.74 1419.27 1081.38 1412.55 1076.1 1405.74L1080.49 1402.34C1085.72 1409.1 1091.04 1415.78 1096.36 1422.25L1092.1 1425.78ZM1068.36 1395.57C1063.25 1388.77 1058.19 1381.79 1053.26 1374.86L1057.77 1371.67C1062.62 1378.56 1067.68 1385.49 1072.74 1392.26L1068.36 1395.57ZM1045.94 1364.35C1041.09 1357.29 1036.32 1350.1 1031.77 1343L1036.45 1340.02C1040.96 1347.08 1045.72 1354.23 1050.53 1361.25L1045.94 1364.35ZM1024.96 1332.19C1020.49 1325 1016.02 1317.6 1011.77 1310.24L1016.58 1307.44C1020.83 1314.75 1025.26 1322.07 1029.68 1329.22L1024.96 1332.19ZM1005.43 1299.18C1001.26 1291.78 997.133 1284.21 993.219 1276.68L998.112 1274.13C1002.03 1281.57 1006.11 1289.1 1010.24 1296.46L1005.43 1299.18ZM987.347 1265.32C983.475 1257.71 979.731 1249.97 976.157 1242.31L981.177 1239.97C984.751 1247.54 988.496 1255.24 992.325 1262.81L987.347 1265.32ZM970.795 1230.7C967.306 1222.96 963.86 1215.04 960.626 1207.26L965.732 1205.13C968.966 1212.92 972.37 1220.74 975.859 1228.44L970.795 1230.7ZM955.776 1195.43C952.627 1187.57 949.564 1179.48 946.628 1171.49L951.819 1169.57C954.712 1177.53 957.775 1185.52 960.924 1193.39L955.776 1195.43ZM942.33 1159.41C939.522 1151.32 936.799 1143.16 934.246 1135.07L939.522 1133.41C942.075 1141.45 944.755 1149.58 947.564 1157.62L942.33 1159.41ZM930.502 1122.82C928.034 1114.61 925.694 1106.32 923.524 1098.15L928.885 1096.7C931.055 1104.83 933.395 1113.08 935.82 1121.21L930.502 1122.82ZM920.247 1085.73C918.162 1077.48 916.205 1069.1 914.376 1060.76L919.779 1059.57C921.609 1067.82 923.566 1076.16 925.608 1084.37L920.247 1085.73ZM911.695 1048.21C909.993 1039.83 908.376 1031.37 906.93 1023.03L912.376 1022.09C913.822 1030.39 915.397 1038.81 917.141 1047.11L911.695 1048.21ZM904.845 1010.35C903.526 1001.97 902.292 993.423 901.185 984.958L906.674 984.235C907.78 992.658 908.972 1001.12 910.291 1009.46L904.845 1010.35ZM899.611 972.282C898.632 963.86 897.782 955.267 897.058 946.76L902.59 946.292C903.313 954.757 904.164 963.264 905.1 971.644L899.611 972.282ZM896.08 933.956C895.484 925.491 895.016 916.898 894.675 908.348L900.207 908.136C900.547 916.601 901.015 925.151 901.611 933.573L896.08 933.956ZM894.25 895.587C894.037 887.888 893.952 880.018 893.952 872.276V869.937H899.483V872.234C899.483 879.933 899.569 887.76 899.781 895.417L894.25 895.587ZM899.611 857.218L894.08 857.133C894.207 848.583 894.505 839.99 894.888 831.525L900.42 831.78C900.037 840.16 899.781 848.71 899.611 857.218ZM901.1 819.019L895.569 818.679C896.08 810.214 896.718 801.621 897.484 793.114L903.015 793.624C902.249 802.089 901.611 810.639 901.1 819.019ZM904.249 780.906L898.718 780.31C899.611 771.888 900.632 763.337 901.781 754.873L907.27 755.596C906.164 764.061 905.142 772.568 904.249 780.906ZM2624.97 751.002C2623.82 742.664 2622.5 734.199 2621.05 725.819L2626.5 724.883C2627.95 733.306 2629.27 741.813 2630.41 750.193L2624.97 751.002ZM909.057 743.004L903.568 742.196C904.802 733.816 906.206 725.309 907.738 716.886L913.184 717.865C911.695 726.245 910.291 734.71 909.057 743.004ZM2618.84 713.313C2617.31 704.976 2615.61 696.553 2613.82 688.344L2619.22 687.195C2621.01 695.49 2622.71 703.955 2624.29 712.335L2618.84 713.313ZM915.567 705.359L910.121 704.295C911.738 695.958 913.525 687.493 915.397 679.198L920.8 680.432C918.928 688.641 917.184 697.064 915.567 705.359ZM2611.06 675.923C2609.14 667.713 2607.1 659.376 2604.93 651.208L2610.29 649.805C2612.46 658.057 2614.54 666.437 2616.46 674.689L2611.06 675.923ZM923.694 668.011L918.29 666.692C920.29 658.44 922.46 650.06 924.672 641.85L930.034 643.296C927.821 651.464 925.694 659.801 923.694 668.011ZM2601.61 638.872C2599.35 630.79 2596.93 622.581 2594.38 614.413L2599.65 612.754C2602.21 620.922 2604.63 629.216 2606.89 637.341L2601.61 638.872ZM933.523 631.046L928.204 629.514C930.587 621.347 933.097 613.095 935.693 604.97L940.969 606.671C938.373 614.754 935.863 622.921 933.523 631.046ZM2590.5 602.29C2587.87 594.208 2585.06 586.083 2582.21 578.171L2587.4 576.3C2590.25 584.254 2593.1 592.421 2595.74 600.546L2590.5 602.29ZM944.968 594.548L939.735 592.762C942.458 584.68 945.351 576.512 948.33 568.515L953.521 570.429C950.542 578.384 947.691 586.509 944.968 594.548ZM2577.82 566.261C2574.8 558.306 2571.7 550.352 2568.51 542.61L2573.65 540.483C2576.85 548.267 2579.99 556.264 2583.06 564.261L2577.82 566.261ZM958.031 558.476L952.882 556.477C955.988 548.523 959.222 540.483 962.541 532.656L967.647 534.825C964.371 542.61 961.137 550.564 958.031 558.476ZM2563.57 530.912C2560.21 523.128 2556.72 515.301 2553.19 507.686L2558.21 505.347C2561.78 513.004 2565.27 520.873 2568.63 528.7L2563.57 530.912ZM972.71 523.085L967.647 520.831C971.093 513.046 974.667 505.177 978.369 497.477L983.39 499.859C979.731 507.516 976.114 515.343 972.71 523.085ZM2547.78 496.201C2544.08 488.587 2540.25 480.93 2536.38 473.486L2541.32 470.934C2545.23 478.463 2549.06 486.162 2552.76 493.819L2547.78 496.201ZM988.964 488.374L983.986 485.907C987.772 478.293 991.687 470.594 995.729 463.064L1000.62 465.659C996.623 473.188 992.708 480.803 988.964 488.374ZM2530.47 462.256C2526.47 454.812 2522.3 447.368 2518.09 440.052L2522.89 437.287C2527.15 444.646 2531.32 452.175 2535.36 459.661L2530.47 462.256ZM1006.71 454.429L1001.86 451.749C1005.94 444.305 1010.24 436.819 1014.58 429.46L1019.34 432.267C1015.05 439.584 1010.79 447.07 1006.71 454.429ZM2511.66 429.077C2507.32 421.803 2502.85 414.529 2498.3 407.425L2502.98 404.448C2507.53 411.594 2512.04 418.953 2516.43 426.227L2511.66 429.077ZM1025.94 421.335L1021.22 418.443C1025.68 411.169 1030.28 403.852 1034.92 396.706L1039.55 399.726C1034.92 406.83 1030.32 414.104 1025.94 421.335ZM2491.37 396.706C2486.73 389.687 2481.92 382.583 2477.07 375.65L2481.62 372.459C2486.51 379.435 2491.37 386.582 2496 393.643L2491.37 396.706ZM1046.57 389.092L1041.98 385.986C1046.75 378.925 1051.68 371.821 1056.62 364.888L1061.13 368.121C1056.23 375.012 1051.3 382.073 1046.57 389.092ZM2469.71 365.313C2464.73 358.422 2459.62 351.531 2454.48 344.895L2458.86 341.534C2464.01 348.213 2469.15 355.147 2474.18 362.08L2469.71 365.313ZM1068.62 357.826L1064.15 354.551C1069.17 347.745 1074.4 340.854 1079.72 334.133L1084.06 337.536C1078.83 344.257 1073.64 351.063 1068.62 357.826ZM2446.65 334.856C2441.46 328.305 2436.05 321.627 2430.56 315.119L2434.82 311.545C2440.35 318.096 2445.8 324.817 2451.03 331.411L2446.65 334.856ZM1092.06 327.582L1087.76 324.094C1093.08 317.501 1098.61 310.865 1104.19 304.399L1108.4 308.015C1102.82 314.438 1097.34 321.031 1092.06 327.582ZM2422.31 305.42C2416.78 299.039 2411.08 292.659 2405.37 286.406L2409.46 282.662C2415.25 288.958 2420.95 295.381 2426.52 301.804L2422.31 305.42ZM1116.74 298.401L1112.57 294.743C1118.23 288.362 1124.01 281.982 1129.84 275.771L1133.89 279.557C1128.14 285.683 1122.35 292.021 1116.74 298.401ZM2396.65 277.09C2390.82 270.965 2384.87 264.797 2378.87 258.841L2382.78 254.928C2388.82 260.926 2394.82 267.136 2400.65 273.304L2396.65 277.09ZM1142.69 270.327L1138.69 266.498C1144.61 260.373 1150.69 254.247 1156.78 248.335L1160.65 252.291C1154.61 258.161 1148.56 264.244 1142.69 270.327ZM2369.8 249.866C2363.72 243.996 2357.51 238.083 2351.25 232.383L2355 228.299C2361.29 234.042 2367.55 239.955 2373.67 245.867L2369.8 249.866ZM1169.84 243.4L1166.01 239.402C1172.22 233.531 1178.56 227.661 1184.86 222.046L1188.56 226.172C1182.31 231.745 1176.01 237.573 1169.84 243.4ZM2341.76 223.875C2335.47 218.26 2328.96 212.688 2322.45 207.243L2326.02 202.989C2332.57 208.477 2339.13 214.092 2345.47 219.749L2341.76 223.875ZM1198.13 217.708L1194.52 213.539C1200.94 207.966 1207.54 202.394 1214.13 197.034L1217.62 201.331C1211.03 206.69 1204.47 212.178 1198.13 217.708ZM2312.62 199.119C2306.02 193.759 2299.3 188.484 2292.58 183.337L2295.94 178.956C2302.7 184.103 2309.47 189.463 2316.11 194.822L2312.62 199.119ZM1227.49 193.333L1224.05 188.995C1230.73 183.72 1237.53 178.445 1244.34 173.341L1247.66 177.765C1240.9 182.827 1234.13 188.059 1227.49 193.333ZM2282.41 175.68C2275.64 170.661 2268.66 165.641 2261.69 160.792L2264.88 156.241C2271.86 161.132 2278.88 166.152 2285.73 171.214L2282.41 175.68ZM1257.92 170.236L1254.68 165.769C1261.57 160.75 1268.64 155.815 1275.62 151.051L1278.72 155.645C1271.79 160.324 1264.77 165.259 1257.92 170.236ZM2251.18 153.561C2244.16 148.797 2236.97 144.117 2229.82 139.608L2232.8 134.929C2239.99 139.481 2247.22 144.203 2254.28 149.009L2251.18 153.561ZM1289.32 148.499L1286.25 143.862C1293.4 139.141 1300.63 134.504 1307.83 130.08L1310.72 134.802C1303.61 139.226 1296.38 143.82 1289.32 148.499ZM2219.01 132.845C2211.78 128.421 2204.37 124.04 2197.05 119.828L2199.82 115.022C2207.18 119.233 2214.63 123.657 2221.9 128.123L2219.01 132.845ZM1321.61 128.166L1318.76 123.402C1326.08 119.02 1333.52 114.724 1340.93 110.555L1343.65 115.405C1336.25 119.531 1328.84 123.827 1321.61 128.166ZM2185.91 113.575C2178.5 109.492 2170.93 105.408 2163.4 101.537L2165.95 96.6029C2173.52 100.516 2181.14 104.6 2188.63 108.726L2185.91 113.575ZM1354.76 109.322L1352.12 104.43C1359.56 100.389 1367.22 96.4328 1374.8 92.6044L1377.26 97.5387C1369.73 101.367 1362.16 105.323 1354.76 109.322ZM2152 95.7522C2144.42 92.0089 2136.68 88.2655 2128.98 84.7349L2131.32 79.7155C2139.1 83.2886 2146.89 87.032 2154.51 90.8178L2152 95.7522ZM1388.67 91.9238L1386.24 86.9469C1393.9 83.2461 1401.69 79.5879 1409.43 76.1423L1411.69 81.2043C1404.03 84.6499 1396.28 88.2655 1388.67 91.9238ZM2117.32 79.4603C2109.53 76.0147 2101.62 72.6542 2093.79 69.4639L2095.87 64.3169C2103.74 67.5497 2111.7 70.9102 2119.53 74.3983L2117.32 79.4603ZM1423.35 76.0572L1421.13 70.9527C1428.92 67.5923 1436.88 64.3169 1444.75 61.1691L1446.79 66.3587C1438.96 69.4639 1431.09 72.7393 1423.35 76.0572ZM2081.96 64.7422C2074.05 61.637 2066 58.6168 2058 55.8093L2059.88 50.5772C2067.88 53.4272 2076 56.49 2083.96 59.5952L2081.96 64.7422ZM1458.7 61.7221L1456.75 56.5325C1464.7 53.5123 1472.83 50.5772 1480.87 47.7697L1482.7 53.0019C1474.66 55.8093 1466.62 58.7444 1458.7 61.7221ZM2045.92 51.5556C2037.88 48.8332 2029.71 46.1958 2021.58 43.6861L2023.2 38.4115C2031.37 40.9212 2039.58 43.6011 2047.67 46.3235L2045.92 51.5556ZM1494.7 48.9608L1492.96 43.6861C1501 41.0488 1509.25 38.454 1517.42 36.0294L1519 41.3466C1510.91 43.7712 1502.74 46.3235 1494.7 48.9608ZM2009.37 40.0279C2001.29 37.6458 1992.99 35.3913 1984.78 33.2644L1986.18 27.9047C1994.44 30.0316 2002.78 32.3286 2010.9 34.7107L2009.37 40.0279ZM1531.29 37.8159L1529.8 32.4987C1537.97 30.2017 1546.31 27.9897 1554.61 25.9054L1555.93 31.2651C1547.72 33.307 1539.42 35.5189 1531.29 37.8159ZM1972.44 30.1592C1964.23 28.1599 1955.89 26.2457 1947.59 24.5017L1948.74 19.0994C1957.08 20.886 1965.5 22.8002 1973.76 24.7994L1972.44 30.1592ZM1568.31 28.2875L1567.03 22.8852C1575.37 20.9285 1583.8 19.0994 1592.09 17.3979L1593.2 22.8427C1584.95 24.5017 1576.56 26.3308 1568.31 28.2875ZM1935.08 21.9069C1926.83 20.2904 1918.36 18.7591 1910.02 17.3553L1910.91 11.9105C1919.34 13.3143 1927.81 14.8456 1936.14 16.5046L1935.08 21.9069ZM1605.71 20.4181L1604.69 14.9732C1613.03 13.3993 1621.5 11.9531 1629.96 10.6344L1630.81 16.1218C1622.43 17.3979 1613.96 18.8442 1605.71 20.4181ZM1897.43 15.3561C1889.09 14.0799 1880.58 12.9314 1872.15 11.9105L1872.83 6.42318C1881.3 7.44408 1889.85 8.63514 1898.23 9.91126L1897.43 15.3561ZM1643.45 14.2076L1642.68 8.72021C1651.15 7.52916 1659.7 6.42318 1668.13 5.48735L1668.72 10.9747C1660.34 11.9105 1651.83 13.0165 1643.45 14.2076ZM1859.51 10.4643C1851.13 9.57096 1842.58 8.76275 1834.15 8.12468L1834.58 2.59479C1843.09 3.23286 1851.69 4.04107 1860.11 4.93436L1859.51 10.4643ZM1681.4 9.65604L1680.85 4.12615C1689.36 3.31793 1697.96 2.59479 1706.42 1.99927L1706.81 7.52916C1698.38 8.12468 1689.87 8.84782 1681.4 9.65604ZM1821.43 7.27393C1812.97 6.76348 1804.41 6.3381 1795.99 6.04034L1796.16 0.510451C1804.63 0.808215 1813.26 1.19105 1821.77 1.74404L1821.43 7.27393ZM1719.53 6.80602L1719.23 1.27613C1727.74 0.808215 1736.33 0.510451 1744.84 0.297763L1744.97 5.82765C1736.55 5.9978 1727.95 6.3381 1719.53 6.80602ZM1783.22 5.70004C1774.76 5.52989 1766.25 5.48735 1757.74 5.57243L1757.69 0.0425376C1766.25 -0.0425376 1774.8 0 1783.35 0.17015L1783.22 5.70004Z" fill="#4C7DE6"/>
<path d="M2628.29 777.502C2627.82 773.291 2627.35 769.037 2626.8 764.826L2632.29 764.146C2632.8 768.399 2633.31 772.611 2633.78 776.864L2628.29 777.502Z" fill="#4C7DE6"/>
<path d="M1149.6 320.018C1165.75 303.871 1165.75 277.693 1149.6 261.546C1133.45 245.399 1107.26 245.399 1091.11 261.546C1074.96 277.693 1074.96 303.871 1091.11 320.018C1107.26 336.165 1133.45 336.165 1149.6 320.018Z" fill="#4C7DE6"/>
<path d="M1549.59 349.617C1543.72 352.084 1540.95 358.89 1543.42 364.76L1760.72 880.316L1782.03 871.341L1564.74 355.785C1562.27 349.872 1555.5 347.107 1549.59 349.617Z" fill="#234460"/>
<path d="M1169.12 695.745C1169.97 692.64 1173.24 690.811 1176.35 691.747L1764.72 865.683C1766.33 866.151 1767.23 867.853 1766.76 869.426C1765.44 873.935 1760.63 876.573 1756.08 875.212L1173.07 702.849C1170.01 701.956 1168.26 698.765 1169.12 695.745Z" fill="#073B76"/>
<path d="M1816.87 884.167C1823.41 856.334 1806.14 828.473 1778.3 821.937C1750.46 815.401 1722.59 832.666 1716.05 860.499C1709.51 888.332 1726.78 916.194 1754.62 922.729C1782.46 929.265 1810.33 912.001 1816.87 884.167Z" fill="#717CBF"/>
<path d="M1686.21 379.35H1714.51V289.639C1714.51 286.959 1714.59 284.236 1714.76 281.471L1691.23 301.592C1690.64 302.102 1690 302.442 1689.4 302.655C1688.81 302.868 1688.21 302.995 1687.66 302.995C1686.72 302.995 1685.91 302.783 1685.19 302.4C1684.47 302.017 1683.92 301.507 1683.53 300.996L1678.38 293.935L1717.53 260.032H1730.85V379.393H1756.76V391.899H1686.21V379.35Z" fill="#234460"/>
<path d="M1821.6 258.799C1827.18 258.799 1832.37 259.607 1837.22 261.266C1842.07 262.925 1846.24 265.307 1849.77 268.497C1853.3 271.645 1856.07 275.474 1858.07 280.025C1860.07 284.577 1861.09 289.681 1861.09 295.466C1861.09 300.358 1860.37 304.91 1858.88 309.078C1857.39 313.247 1855.43 317.246 1852.92 321.074C1850.41 324.902 1847.52 328.603 1844.24 332.176C1840.96 335.749 1837.47 339.408 1833.81 343.151L1799.18 378.585C1801.65 377.904 1804.12 377.394 1806.63 376.968C1809.14 376.585 1811.56 376.373 1813.9 376.373H1857.98C1859.77 376.373 1861.17 376.883 1862.19 377.947C1863.22 378.968 1863.77 380.329 1863.77 381.988V391.899H1775.95V386.242C1775.95 385.093 1776.16 383.902 1776.63 382.668C1777.1 381.435 1777.82 380.329 1778.88 379.265L1821.05 336.94C1824.54 333.41 1827.73 329.964 1830.62 326.689C1833.52 323.413 1835.98 320.138 1838.03 316.82C1840.07 313.502 1841.64 310.142 1842.75 306.781C1843.86 303.378 1844.41 299.763 1844.41 295.892C1844.41 292.021 1843.81 288.66 1842.58 285.725C1841.35 282.833 1839.69 280.408 1837.52 278.536C1835.39 276.622 1832.88 275.218 1829.99 274.283C1827.09 273.347 1824.03 272.879 1820.71 272.879C1817.39 272.879 1814.33 273.389 1811.52 274.368C1808.71 275.346 1806.2 276.707 1804.03 278.451C1801.86 280.195 1800.03 282.28 1798.5 284.662C1797.01 287.044 1795.95 289.681 1795.35 292.574C1794.88 294.36 1794.12 295.636 1793.14 296.445C1792.16 297.253 1790.88 297.636 1789.27 297.636C1788.97 297.636 1788.63 297.636 1788.29 297.593C1787.95 297.551 1787.56 297.508 1787.14 297.466L1778.59 295.977C1779.44 289.979 1781.1 284.662 1783.56 280.025C1786.03 275.389 1789.14 271.518 1792.88 268.412C1796.63 265.307 1800.97 262.925 1805.82 261.309C1810.71 259.607 1815.99 258.799 1821.6 258.799Z" fill="#234460"/>
<path d="M1772.84 1396.17C1778.12 1396.17 1783.1 1397.06 1787.82 1398.81C1792.54 1400.55 1796.67 1403.1 1800.2 1406.42C1803.73 1409.74 1806.58 1413.87 1808.67 1418.71C1810.75 1423.56 1811.77 1429.14 1811.77 1435.39C1811.77 1441.47 1810.67 1447.09 1808.46 1452.28C1806.24 1457.47 1803.18 1462.02 1799.22 1465.85C1795.27 1469.72 1790.5 1472.74 1784.93 1474.95C1779.35 1477.16 1773.23 1478.27 1766.55 1478.27C1759.95 1478.27 1753.95 1477.2 1748.59 1475.08C1743.23 1472.95 1738.68 1469.97 1734.85 1466.1C1731.06 1462.23 1728.12 1457.51 1726.08 1451.98C1724.04 1446.45 1723.02 1440.24 1723.02 1433.39C1723.02 1427.65 1724.29 1421.52 1726.89 1415.01C1729.44 1408.55 1733.53 1401.53 1739.1 1394.09L1772.46 1349.17C1773.31 1348.06 1774.5 1347.12 1776.03 1346.36C1777.57 1345.59 1779.31 1345.21 1781.27 1345.21H1795.78L1750.12 1402.98C1753.23 1400.85 1756.72 1399.15 1760.5 1397.96C1764.33 1396.77 1768.42 1396.17 1772.84 1396.17ZM1738.85 1436.2C1738.85 1440.41 1739.44 1444.28 1740.68 1447.77C1741.91 1451.26 1743.7 1454.28 1746.04 1456.79C1748.38 1459.3 1751.27 1461.25 1754.67 1462.61C1758.08 1463.97 1761.95 1464.7 1766.29 1464.7C1770.71 1464.7 1774.67 1463.97 1778.25 1462.57C1781.78 1461.17 1784.84 1459.21 1787.39 1456.7C1789.95 1454.19 1791.9 1451.21 1793.27 1447.81C1794.63 1444.36 1795.35 1440.66 1795.35 1436.62C1795.35 1432.33 1794.67 1428.46 1793.35 1425.01C1791.99 1421.56 1790.12 1418.63 1787.65 1416.2C1785.18 1413.78 1782.25 1411.95 1778.84 1410.63C1775.4 1409.36 1771.65 1408.72 1767.52 1408.72C1763.1 1408.72 1759.14 1409.48 1755.57 1410.97C1752.04 1412.46 1749.01 1414.5 1746.5 1417.06C1744.04 1419.61 1742.12 1422.54 1740.8 1425.86C1739.48 1429.14 1738.85 1432.58 1738.85 1436.2Z" fill="#234460"/>
<path d="M2337.3 801.239C2342.87 801.239 2348.02 802.047 2352.74 803.621C2357.46 805.195 2361.51 807.492 2364.91 810.427C2368.31 813.362 2370.95 816.935 2372.87 821.061C2374.78 825.23 2375.72 829.866 2375.72 834.928C2375.72 839.097 2375.16 842.798 2374.1 846.073C2373.04 849.349 2371.5 852.241 2369.51 854.708C2367.51 857.175 2365.12 859.302 2362.27 861.004C2359.46 862.705 2356.32 864.109 2352.83 865.13C2361.42 867.385 2367.85 871.17 2372.14 876.53C2376.44 881.847 2378.61 888.526 2378.61 896.565C2378.61 902.606 2377.46 908.093 2375.16 912.9C2372.87 917.749 2369.72 921.875 2365.76 925.236C2361.76 928.639 2357.12 931.233 2351.85 933.063C2346.57 934.892 2340.87 935.785 2334.83 935.785C2327.85 935.785 2321.89 934.934 2316.91 933.148C2311.94 931.404 2307.77 929.021 2304.32 925.959C2300.87 922.896 2298.07 919.28 2295.85 915.069C2293.64 910.858 2291.77 906.349 2290.24 901.415L2297.21 898.48C2298.49 897.927 2299.77 897.671 2301.09 897.671C2302.32 897.671 2303.38 897.927 2304.36 898.437C2305.3 898.947 2306.02 899.756 2306.53 900.862C2306.66 901.117 2306.79 901.372 2306.92 901.627C2307.04 901.883 2307.17 902.18 2307.3 902.478C2308.15 904.265 2309.21 906.264 2310.4 908.476C2311.64 910.73 2313.3 912.815 2315.38 914.771C2317.47 916.728 2320.06 918.387 2323.13 919.748C2326.23 921.11 2330.06 921.748 2334.66 921.748C2339.25 921.748 2343.3 920.982 2346.74 919.493C2350.19 918.004 2353.08 916.047 2355.38 913.665C2357.68 911.283 2359.42 908.603 2360.57 905.668C2361.72 902.733 2362.31 899.841 2362.31 896.948C2362.31 893.418 2361.85 890.142 2360.91 887.207C2359.97 884.272 2358.23 881.72 2355.76 879.593C2353.29 877.466 2349.85 875.764 2345.47 874.531C2341.08 873.297 2335.47 872.702 2328.62 872.702V860.749C2334.19 860.749 2338.96 860.153 2342.91 859.005C2346.87 857.856 2350.1 856.24 2352.61 854.24C2355.12 852.241 2356.95 849.816 2358.06 846.966C2359.21 844.159 2359.76 841.011 2359.76 837.608C2359.76 833.822 2359.17 830.504 2357.97 827.697C2356.78 824.889 2355.12 822.55 2353.04 820.721C2350.95 818.892 2348.49 817.488 2345.64 816.595C2342.78 815.659 2339.72 815.233 2336.4 815.233C2333.08 815.233 2330.02 815.701 2327.21 816.722C2324.4 817.701 2321.89 819.062 2319.72 820.806C2317.55 822.55 2315.72 824.634 2314.28 827.059C2312.79 829.483 2311.72 832.078 2310.96 834.886C2310.45 836.672 2309.72 837.948 2308.75 838.757C2307.77 839.565 2306.49 839.948 2304.96 839.948C2304.66 839.948 2304.32 839.948 2303.98 839.905C2303.64 839.863 2303.26 839.82 2302.83 839.778L2294.28 838.331C2295.13 832.334 2296.79 827.016 2299.26 822.38C2301.72 817.743 2304.83 813.872 2308.58 810.767C2312.36 807.662 2316.66 805.28 2321.51 803.663C2326.4 802.047 2331.68 801.239 2337.3 801.239Z" fill="#234460"/>
<path d="M1192.05 880.316C1187.07 880.316 1182.39 879.508 1177.97 877.849C1173.54 876.19 1169.63 873.765 1166.27 870.532C1162.9 867.299 1160.22 863.386 1158.22 858.707C1156.22 854.028 1155.25 848.668 1155.25 842.585C1155.25 836.843 1156.31 831.44 1158.48 826.421C1160.61 821.401 1163.63 817.02 1167.5 813.277C1171.37 809.533 1175.97 806.598 1181.29 804.471C1186.6 802.344 1192.48 801.239 1198.82 801.239C1205.11 801.239 1210.86 802.259 1216 804.344C1221.15 806.428 1225.58 809.321 1229.24 813.064C1232.9 816.807 1235.75 821.274 1237.75 826.463C1239.75 831.653 1240.73 837.438 1240.73 843.734C1240.73 847.519 1240.39 851.135 1239.66 854.538C1238.94 857.941 1237.92 861.259 1236.6 864.492C1235.24 867.725 1233.66 870.958 1231.79 874.19C1229.92 877.423 1227.79 880.741 1225.41 884.144L1193.37 930.425C1192.56 931.574 1191.45 932.51 1189.97 933.233C1188.48 933.956 1186.82 934.296 1184.9 934.296H1169.84L1209.88 881.847C1211.24 880.061 1212.47 878.402 1213.62 876.785C1214.77 875.211 1215.88 873.595 1216.94 872.021C1213.58 874.701 1209.79 876.785 1205.54 878.189C1201.24 879.635 1196.77 880.316 1192.05 880.316ZM1224.94 841.862C1224.94 837.778 1224.3 834.035 1222.98 830.717C1221.66 827.399 1219.83 824.549 1217.54 822.21C1215.2 819.87 1212.43 818.083 1209.24 816.85C1206.01 815.616 1202.47 814.978 1198.64 814.978C1194.6 814.978 1190.9 815.616 1187.58 816.935C1184.26 818.254 1181.41 820.083 1179.03 822.38C1176.69 824.719 1174.86 827.484 1173.58 830.717C1172.31 833.95 1171.67 837.523 1171.67 841.351C1171.67 845.52 1172.26 849.221 1173.46 852.496C1174.65 855.772 1176.35 858.537 1178.6 860.791C1180.82 863.046 1183.58 864.79 1186.77 865.938C1190.01 867.087 1193.58 867.682 1197.58 867.682C1202.01 867.682 1205.88 866.959 1209.28 865.513C1212.69 864.067 1215.54 862.152 1217.88 859.77C1220.22 857.388 1221.96 854.623 1223.2 851.518C1224.3 848.455 1224.94 845.222 1224.94 841.862Z" fill="#234460"/>
<path d="M1979.42 420.016C2046.56 448.517 2107.45 491.394 2156.97 544.864C2181.74 571.578 2203.78 600.844 2222.37 632.194L2233.18 651.336C2234.41 653.378 2235.39 655.547 2236.46 657.674C2239.82 653.548 2243.26 649.337 2246.5 645.168C2247.43 654.781 2248.07 664.395 2248.75 673.711C2249.09 683.239 2249.22 692.64 2249.35 701.871C2242.54 695.405 2235.86 689.109 2229.14 682.984C2222.07 677.029 2215.22 671.201 2208.25 665.629C2213.56 665.033 2218.71 664.608 2223.95 664.182C2222.88 662.14 2221.95 660.014 2220.75 658.014L2210.25 639.383C2192.16 608.883 2170.72 580.426 2146.63 554.435C2098.43 502.454 2039.2 460.682 1973.93 432.99L1979.42 420.016Z" fill="#C8CBF8"/>
<path d="M1565.25 1347.08C1498.23 1318.58 1437.47 1275.7 1388.03 1222.32C1363.31 1195.65 1341.31 1166.38 1322.72 1135.07L1311.95 1115.97C1310.72 1113.93 1309.74 1111.76 1308.68 1109.64C1305.32 1113.76 1301.87 1117.97 1298.63 1122.14C1297.7 1112.53 1297.06 1102.92 1296.38 1093.6C1296.04 1084.07 1295.91 1074.67 1295.78 1065.44C1302.59 1071.91 1309.27 1078.2 1315.99 1084.33C1323.06 1090.28 1329.91 1096.11 1336.89 1101.68C1331.57 1102.28 1326.42 1102.7 1321.14 1103.13C1322.21 1105.17 1323.14 1107.3 1324.33 1109.3L1334.8 1127.88C1352.84 1158.34 1374.29 1186.8 1398.33 1212.75C1446.45 1264.69 1505.55 1306.42 1570.74 1334.11L1565.25 1347.08Z" fill="#EEF5FF"/>
<path d="M2317.34 474.422C2189.74 298.104 1983.8 192.866 1766.38 192.866V188.612C1985.12 188.612 2192.37 294.53 2320.79 471.955L2317.34 474.422Z" fill="#073B76"/>
<path d="M1294.59 1367.16C1157.88 1236.82 1082.57 1061.1 1082.57 872.276H1086.83C1086.83 1059.91 1161.67 1234.57 1297.53 1364.05L1294.59 1367.16Z" fill="#073B76"/>
<path d="M2317.34 474.422C2189.74 298.104 1983.8 192.866 1766.38 192.866V188.612C1985.12 188.612 2192.37 294.53 2320.79 471.955L2317.34 474.422Z" fill="#234460"/>
<path d="M1294.59 1367.16C1157.88 1236.82 1082.57 1061.1 1082.57 872.276H1086.83C1086.83 1059.91 1161.67 1234.57 1297.53 1364.05L1294.59 1367.16Z" fill="#234460"/>
<path d="M2431.97 577.533C2315.3 314.608 2054.05 144.713 1766.42 144.713C1715.87 144.713 1665.41 149.903 1616.39 160.197L1615.5 156.028C1664.81 145.691 1715.57 140.459 1766.37 140.459C2055.71 140.459 2318.49 311.375 2435.84 575.832L2431.97 577.533Z" fill="#234460"/>
<path d="M730.096 1030.39C715.672 1035.83 701.674 1043.19 688.441 1052.47C602.152 1112.83 581.175 1231.72 641.595 1317.99C701.971 1404.25 820.896 1425.22 907.185 1364.82C920.417 1355.59 932.118 1344.95 942.203 1333.26C862.508 1363.59 769.411 1337.38 718.268 1264.35C667.081 1191.27 674.272 1094.83 730.096 1030.39Z" fill="#FFD357"/>
<path d="M220.829 1587.72C220.829 1588.95 220.872 1590.14 220.957 1591.33H550.158C550.243 1589.84 550.328 1588.35 550.328 1586.78C550.328 1550.41 520.799 1520.89 484.419 1520.89C477.229 1520.89 470.336 1522.04 463.868 1524.17C452.806 1491.33 421.745 1467.63 385.153 1467.63C344.902 1467.63 311.373 1496.22 303.757 1534.2C296.396 1530.84 288.184 1528.97 279.547 1528.97C247.124 1529.06 220.829 1555.3 220.829 1587.72Z" fill="#DCEAFF"/>
<path d="M843.489 1778.2H1211.88C1213.88 1772.8 1214.94 1766.93 1214.94 1760.84C1214.94 1732.81 1192.22 1710.1 1164.18 1710.1C1157.5 1710.1 1151.12 1711.37 1145.29 1713.71C1142.35 1670.66 1106.44 1636.59 1062.62 1636.59C1023 1636.59 989.857 1664.41 981.731 1701.55C975.731 1699.25 969.221 1698.06 962.413 1698.06C934.331 1698.06 911.142 1719.2 908.036 1746.47C901.271 1741.23 892.803 1738.13 883.613 1738.13C861.402 1738.13 843.489 1756.08 843.489 1778.2Z" fill="#DCEAFF"/>
<path d="M691.547 1586.91L707.801 1616.64L737.585 1632.93L707.801 1649.23L691.547 1678.96L675.251 1649.23L645.509 1632.93L675.251 1616.64L691.547 1586.91Z" fill="#FFD357"/>
<path d="M779.836 1502.68L788.048 1517.7L803.068 1525.87L788.048 1534.08L779.836 1549.09L771.624 1534.08L756.604 1525.87L771.624 1517.7L779.836 1502.68Z" fill="#FFD357"/>
<path d="M2769.3 1672.45L2777.51 1687.47L2792.53 1695.63L2777.51 1703.84L2769.3 1718.86L2761.08 1703.84L2746.06 1695.63L2761.08 1687.47L2769.3 1672.45Z" fill="white"/>
<path d="M2700.37 1385.11L2708.58 1400.08L2723.6 1408.29L2708.58 1416.5L2700.37 1431.52L2692.15 1416.5L2677.18 1408.29L2692.15 1400.08L2700.37 1385.11Z" fill="white"/>
<path d="M1355.39 1817.84L1363.61 1832.86L1378.63 1841.07L1363.61 1849.28L1355.39 1864.25L1347.18 1849.28L1332.16 1841.07L1347.18 1832.86L1355.39 1817.84Z" fill="#FFD357"/>
<path d="M813.067 914.389L821.279 929.362L836.256 937.572L821.279 945.781L813.067 960.797L804.855 945.781L789.835 937.572L804.855 929.362L813.067 914.389Z" fill="#FFD357"/>
<path d="M346.774 1788.03C356.69 1788.03 364.729 1779.99 364.729 1770.07C364.729 1760.16 356.69 1752.12 346.774 1752.12C336.857 1752.12 328.818 1760.16 328.818 1770.07C328.818 1779.99 336.857 1788.03 346.774 1788.03Z" fill="#FFD357"/>
<path d="M1051.85 1501.83C1051.85 1511.74 1043.81 1519.78 1033.9 1519.78C1023.98 1519.78 1015.94 1511.74 1015.94 1501.83C1015.94 1491.92 1023.98 1483.88 1033.9 1483.88C1043.81 1483.88 1051.85 1491.92 1051.85 1501.83Z" fill="#FFD357"/>
<path d="M2817.93 1245.88C2817.93 1255.8 2809.89 1263.84 2799.97 1263.84C2790.06 1263.84 2782.02 1255.8 2782.02 1245.88C2782.02 1235.97 2790.06 1227.93 2799.97 1227.93C2809.89 1227.93 2817.93 1235.97 2817.93 1245.88Z" fill="white"/>
<path d="M388.897 1241.08H3.19117C1.10627 1235.42 0 1229.25 0 1222.87C0 1193.52 23.8274 1169.74 53.1436 1169.74C60.1216 1169.74 66.8018 1171.1 72.9288 1173.53C75.9923 1128.44 113.606 1092.79 159.473 1092.79C200.958 1092.79 235.636 1121.89 244.188 1160.81C250.485 1158.43 257.293 1157.15 264.399 1157.15C293.843 1157.15 318.053 1179.27 321.372 1207.86C328.435 1202.37 337.328 1199.14 346.944 1199.14C370.09 1199.09 388.897 1217.89 388.897 1241.08Z" fill="#DCEAFF"/>
<path d="M354.815 1037.66L362.985 1052.68L378.004 1060.85L362.985 1069.06L354.815 1084.07L346.603 1069.06L331.583 1060.85L346.603 1052.68L354.815 1037.66Z" fill="#FFD357"/>
<path d="M286.694 1238.65H194.065V1242.91H286.694V1238.65Z" fill="#234460"/>
<path d="M75.0137 1173.7L70.7588 1173.4C73.9074 1126.99 112.882 1090.66 159.431 1090.66V1094.92C115.137 1094.96 78.0346 1129.54 75.0137 1173.7Z" fill="#234460"/>
<path d="M2585.82 1869.53L2592.29 1793.98H2536.89L2540.21 1869.53H2585.82Z" fill="#FFB486"/>
<path d="M2592.12 1795.17L2588.42 1837.71C2568.89 1838.94 2550.04 1836.56 2538.64 1834.6L2536.64 1790.71L2592.12 1795.17Z" fill="#FCA377"/>
<path d="M2600.42 1909.94H2456.3C2456.13 1908.24 2455.79 1902.96 2456.9 1897.43C2456.94 1897.3 2598.42 1898.24 2598.42 1898.24L2600.42 1909.94Z" fill="#234460"/>
<path d="M2598.42 1898.24L2456.94 1897.3C2458.3 1882.67 2476.69 1875.78 2493.83 1871.4C2494.98 1871.1 2496.13 1870.85 2497.24 1870.55C2499.7 1869.95 2502.09 1869.44 2504.38 1868.93C2505.58 1868.68 2506.73 1868.42 2507.83 1868.17C2513.75 1866.85 2518.68 1865.7 2521.53 1864.38C2524.09 1863.15 2527.19 1861.4 2529.87 1859.79C2530.81 1859.23 2531.62 1858.68 2532.42 1858.21C2534.98 1856.64 2536.81 1855.41 2536.81 1855.41C2546.08 1858.43 2560 1867.15 2590.63 1853.28L2591.57 1858.6L2592.08 1861.62L2598.42 1898.24Z" fill="#8D93F5"/>
<path d="M2497.24 1870.59C2495.11 1875.53 2494.85 1880.84 2494.85 1880.93L2491.96 1880.8C2492 1880.5 2492.17 1876.16 2493.83 1871.44C2494.98 1871.14 2496.13 1870.89 2497.24 1870.59Z" fill="#234460"/>
<path d="M2507.83 1868.25C2505.45 1873.36 2505.24 1879.06 2505.24 1879.1L2502.34 1879.01C2502.34 1878.72 2502.56 1873.99 2504.38 1869.02C2505.58 1868.72 2506.72 1868.46 2507.83 1868.25Z" fill="#234460"/>
<path d="M2592.04 1861.66C2579.4 1867.95 2568.63 1870.12 2559.7 1870.12C2543.19 1870.12 2533.06 1862.68 2529.87 1859.87C2530.81 1859.32 2531.62 1858.77 2532.42 1858.3C2537.79 1862.89 2557.53 1876.04 2591.52 1858.72L2592.04 1861.66Z" fill="#234460"/>
<path d="M2493.02 1818.74C2545.44 1826.95 2594.12 1830.39 2631.14 1818.74C2631.14 1818.74 2662.45 1467.63 2606.93 1144.98L2495.83 1145.45C2495.88 1145.5 2453.16 1533.18 2493.02 1818.74Z" fill="#7074A0"/>
<path d="M2489.37 821.359C2469.07 816.467 2456.56 807.789 2452.14 795.624C2445.54 777.46 2459.37 758.403 2459.96 757.595L2462.39 759.382C2462.26 759.552 2448.9 777.97 2454.99 794.603C2459.07 805.79 2470.86 813.83 2490.09 818.466L2489.37 821.359Z" fill="#234460"/>
<path d="M2261.3 1869.53L2285.13 1793.98H2229.73L2212.84 1869.53H2261.3Z" fill="#FFB486"/>
<path d="M2285.26 1793.34L2272.11 1834.9C2247.18 1839.37 2227.95 1835.11 2221.14 1833.24L2230.58 1791.05H2250.37L2285.26 1793.34Z" fill="#FCA377"/>
<path d="M2554.38 921.79C2554.38 921.79 2703.9 949.184 2690.45 1097.04C2684.83 1158.51 2638.37 1201.01 2638.37 1201.01L2621.31 1149.03L2561.49 1169.15L2554.38 921.79Z" fill="#8D93F5"/>
<path d="M2471.32 936.083L2481.83 855.644H2529.36L2540.59 936.083H2471.32Z" fill="#FFB587"/>
<path d="M2495.62 886.697C2525.66 878.232 2561.15 836.8 2547.91 788.86C2537.4 750.831 2472.43 761.338 2455.11 793.965C2428.22 844.584 2426.56 906.136 2495.62 886.697Z" fill="#FFB587"/>
<path d="M2221.35 1016.52C2218.46 1014.44 2208.97 1008.1 2207.44 1004.91C2206.03 1001.93 2200.46 984.873 2196.93 986.362C2193.23 987.936 2199.52 998.911 2196.42 999.634C2194.5 1000.1 2181.82 978.833 2178.46 982.279C2176.25 984.533 2185.65 996.359 2184.08 997.124C2182.59 997.805 2174.04 980.79 2170.59 983.98C2166.97 987.298 2182.46 1001.63 2180.72 1003.08C2179.86 1003.8 2166.38 984.873 2163.65 987.553C2159.99 991.127 2175.18 1004.27 2173.65 1006.06C2172.89 1006.95 2168.33 1001.34 2165.23 998.315C2163.48 996.656 2161.87 997.805 2162.38 999.336C2167.65 1015.37 2193.14 1030.22 2194.8 1032.56C2197.27 1036.05 2199.78 1039.41 2202.29 1042.64L2221.35 1016.52Z" fill="#FFBA8C"/>
<path d="M2187.61 1815.38C2238.2 1822.52 2285.51 1824.18 2326.57 1815.38C2497.02 1499.24 2568.38 1142.13 2568.38 1142.13H2436.69C2266.58 1435.09 2187.61 1815.38 2187.61 1815.38Z" fill="#7074A0"/>
<path d="M2297.34 1050.3L2222.58 1010.1L2195.35 1045.49C2195.35 1045.49 2239.43 1160.34 2325.85 1150.68C2394.99 1142.94 2436.65 1013.42 2436.65 1013.42L2297.34 1050.3Z" fill="#8D93F5"/>
<path d="M2639.9 1238.31C2520.98 1292.42 2348.15 1245.08 2348.15 1245.08L2353.42 1227.55L2354.23 1224.83L2399.2 1075.18L2281 1073.78C2281 1073.78 2360.19 962.669 2406.35 935.657C2418.39 928.596 2434.56 923.279 2452.82 919.918C2454.22 919.663 2455.71 919.408 2457.16 919.195C2486.86 914.346 2521.62 914.686 2553.27 921.365C2554.38 921.577 2555.49 921.833 2556.59 922.088C2574.38 926.086 2591.01 932.169 2605.18 940.464C2605.18 940.464 2596.72 988.191 2608.59 1020.6C2635.61 1094.32 2639.69 1182.38 2640.12 1219.89C2640.16 1220.96 2640.16 1221.98 2640.16 1222.91C2640.07 1232.74 2639.9 1238.31 2639.9 1238.31Z" fill="#8D93F5"/>
<path d="M2535.96 1262.9C2534.21 1263.03 2532.42 1263.15 2530.68 1263.28C2529.4 1263.37 2528.13 1263.45 2526.85 1263.49C2434.35 1268.68 2348.15 1245.03 2348.15 1245.03L2353.42 1227.55L2354.23 1224.87L2389.16 1108.1C2395.03 1102.06 2424.69 1053.83 2429.29 1034.3C2429.29 1034.3 2431.24 1084.24 2415.54 1125.2C2405.63 1151.07 2394.48 1189.48 2407.67 1213.9C2424.78 1245.54 2534.42 1262.47 2535.96 1262.9Z" fill="#6E7DD6"/>
<path d="M2335.88 1001.1L2286.45 1061.74L2288.76 1063.62L2338.19 1002.98L2335.88 1001.1Z" fill="#234460"/>
<path d="M2471.07 891.971C2456.05 891.971 2447.88 884.187 2447.41 883.761L2449.5 881.635C2450.09 882.188 2464.01 895.332 2489.71 885.123L2490.81 887.888C2483.32 890.865 2476.73 891.971 2471.07 891.971Z" fill="#234460"/>
<path d="M2538.13 917.962C2503.07 934.424 2473.96 916.43 2473.96 916.43L2474.77 910.007L2536.85 909.199L2538.13 917.962Z" fill="#FFB587"/>
<path d="M2639.99 1222.96C2594.21 1241.76 2545.23 1247.93 2500.6 1247.93C2431.92 1247.93 2373.63 1233.29 2353.38 1227.55L2354.19 1224.83C2387.42 1234.31 2524.34 1267.96 2639.95 1219.89C2639.99 1221 2639.99 1221.98 2639.99 1222.96Z" fill="#234460"/>
<path d="M2638.41 1238.36C2638.41 1237.08 2637.99 1109.81 2607.06 1021.16L2609.86 1020.18C2640.97 1109.3 2641.39 1237.08 2641.39 1238.36H2638.41Z" fill="#234460"/>
<path d="M2556.47 922.088C2543.49 934.551 2528.21 938.805 2513.36 938.805C2484.73 938.805 2457.79 923.024 2452.73 919.918C2454.14 919.663 2455.62 919.408 2457.07 919.195C2470.69 927.022 2519.75 951.524 2553.19 921.365C2554.3 921.62 2555.4 921.875 2556.47 922.088Z" fill="#234460"/>
<path d="M2276.83 1909.94H2132.72C2132.55 1908.24 2132.21 1902.96 2133.32 1897.43C2133.36 1897.3 2274.83 1898.24 2274.83 1898.24L2276.83 1909.94Z" fill="#234460"/>
<path d="M2274.83 1898.24L2133.36 1897.3C2134.72 1882.67 2153.1 1875.78 2170.25 1871.4C2171.4 1871.1 2172.55 1870.85 2173.65 1870.55C2176.12 1869.95 2178.5 1869.44 2180.8 1868.93C2181.99 1868.68 2183.14 1868.42 2184.25 1868.17C2190.16 1866.85 2195.1 1865.7 2197.95 1864.38C2200.5 1863.15 2203.61 1861.4 2206.29 1859.79C2207.22 1859.23 2208.03 1858.68 2208.84 1858.21C2211.39 1856.64 2213.22 1855.41 2213.22 1855.41C2222.5 1858.43 2236.41 1867.15 2267.05 1853.28L2267.98 1858.6L2268.49 1861.62L2274.83 1898.24Z" fill="#8D93F5"/>
<path d="M2173.65 1870.59C2171.53 1875.53 2171.27 1880.84 2171.27 1880.93L2168.38 1880.8C2168.42 1880.5 2168.59 1876.16 2170.25 1871.44C2171.4 1871.14 2172.55 1870.89 2173.65 1870.59Z" fill="#234460"/>
<path d="M2184.25 1868.25C2181.86 1873.36 2181.65 1879.06 2181.65 1879.1L2178.76 1879.01C2178.76 1878.72 2178.97 1873.99 2180.8 1869.02C2181.99 1868.72 2183.14 1868.46 2184.25 1868.25Z" fill="#234460"/>
<path d="M2268.45 1861.66C2255.86 1867.95 2245.05 1870.12 2236.11 1870.12C2219.61 1870.12 2209.48 1862.68 2206.29 1859.87C2207.22 1859.32 2208.03 1858.77 2208.84 1858.3C2214.2 1862.89 2233.94 1876.04 2267.94 1858.72L2268.45 1861.66Z" fill="#234460"/>
<path d="M2430.93 1047.6L2414.61 1066.44L2416.86 1068.39L2433.18 1049.55L2430.93 1047.6Z" fill="#234460"/>
<path d="M2626.2 1222.7H2623.22C2623.22 1193.56 2619.69 1157.02 2619.65 1156.64L2622.63 1156.34C2622.67 1156.68 2626.2 1193.39 2626.2 1222.7Z" fill="#234460"/>
<path d="M2315.68 1152.73C2235.86 1152.73 2194.37 1047.15 2193.95 1046L2196.76 1044.94C2197.18 1046.08 2241.43 1158.55 2325.68 1149.15C2393.03 1141.62 2434.82 1014.18 2435.24 1012.91L2438.09 1013.84C2436.39 1019.16 2395.33 1144.39 2326.02 1152.13C2322.49 1152.51 2319.04 1152.73 2315.68 1152.73Z" fill="#234460"/>
<path d="M2637.05 1008.01C2605.82 1026.65 2531.74 1022.18 2505.15 960.202C2485.58 914.559 2495.15 862.833 2499.79 848.455L2491.71 822.89C2491.71 822.89 2451.07 805.152 2461.24 758.276C2461.24 758.276 2465.71 761.849 2479.49 760.7C2487.15 760.062 2507.36 752.533 2527.32 756.787C2527.36 756.787 2527.45 756.787 2527.49 756.829C2545.53 759.169 2583.14 771.632 2586.97 831.313C2590.12 880.486 2631.14 885.803 2650.5 905.583C2689.35 945.101 2672.33 986.958 2637.05 1008.01Z" fill="#234460"/>
<path d="M2509.92 835.268C2509.92 842.67 2503.92 848.668 2496.51 848.668C2489.11 848.668 2483.11 842.67 2483.11 835.268C2483.11 827.867 2489.11 821.869 2496.51 821.869C2503.92 821.912 2509.92 827.909 2509.92 835.268Z" fill="#FFB587"/>
<path d="M2682.83 931.403C2679.73 918.812 2671.81 906.987 2659.39 896.14C2653.56 891.078 2645.99 887.249 2637.99 883.251C2618.29 873.382 2595.99 862.152 2590.97 827.442C2582.63 769.548 2544.59 761.466 2528.6 760.657L2527.91 760.53C2513.45 758.828 2499.62 763.082 2490.39 765.932C2486.98 766.953 2484.3 767.804 2482.3 768.144L2481.75 764.869C2483.54 764.571 2486.26 763.72 2489.41 762.784C2499.02 759.849 2513.62 755.383 2528.68 757.339L2528.89 757.382C2545.78 758.275 2585.57 766.825 2594.21 826.974C2598.97 859.983 2619.52 870.319 2639.43 880.316C2647.65 884.442 2655.39 888.313 2661.52 893.673C2674.5 904.945 2682.71 917.366 2685.98 930.638L2682.83 931.403Z" fill="#234460"/>
<path d="M2606.33 1824.1C2573.53 1828.73 2534.42 1825.25 2493.07 1818.74C2477.49 1707.29 2475.32 1581.97 2477.45 1468.53C2477.54 1469.84 2511.49 1360.4 2511.49 1360.4C2511.49 1360.4 2496.68 1445.9 2501.75 1497.32C2506.98 1550.45 2526.47 1566.15 2533.91 1626.04C2538.3 1661.05 2520.81 1687.38 2527.19 1724.05C2533.87 1762.63 2563.49 1786.49 2592.38 1812.44C2596.59 1816.23 2601.78 1820.01 2606.33 1824.1Z" fill="#595D7C"/>
<path d="M2475.75 1474.95L2472.64 1473.89C2486.47 1434.16 2499.79 1393.15 2512.17 1352.06L2515.32 1352.99C2502.9 1394.13 2489.62 1435.18 2475.75 1474.95Z" fill="#234460"/>
<path d="M2334.49 1800.49C2331.89 1805.47 2329.25 1810.44 2326.57 1815.38C2285.51 1824.18 2238.2 1822.48 2187.61 1815.38C2187.61 1815.38 2223.56 1642.12 2299.26 1439.43C2302.79 1476.57 2293.64 1515.27 2282.71 1551.52C2268.32 1599.2 2250.79 1647.78 2255.18 1697.42C2258.32 1733.37 2276.92 1771.73 2308.49 1791C2316.02 1795.64 2325.17 1798.23 2334.49 1800.49Z" fill="#595D7C"/>
<path d="M2248.07 1595.12L2244.92 1594.14C2283.77 1468.44 2327.89 1353.84 2376.1 1253.5L2379.08 1254.94C2330.96 1355.12 2286.88 1469.55 2248.07 1595.12Z" fill="#234460"/>
<path d="M3109.81 927.703C3206.65 927.703 3285.16 849.219 3285.16 752.405C3285.16 655.591 3206.65 577.108 3109.81 577.108C3012.97 577.108 2934.47 655.591 2934.47 752.405C2934.47 849.219 3012.97 927.703 3109.81 927.703Z" fill="#FFE4C7"/>
<path d="M2761.76 626.324C2771.68 626.324 2779.72 618.287 2779.72 608.373C2779.72 598.459 2771.68 590.422 2761.76 590.422C2751.85 590.422 2743.81 598.459 2743.81 608.373C2743.81 618.287 2751.85 626.324 2761.76 626.324Z" fill="#FFD357"/>
<path d="M3129.09 718.29H3531.26C3533.43 712.377 3534.62 705.997 3534.62 699.318C3534.62 668.691 3509.82 643.934 3479.22 643.934C3471.95 643.934 3464.97 645.338 3458.59 647.89C3455.4 600.886 3416.21 563.708 3368.34 563.708C3325.11 563.708 3288.94 594.08 3280.01 634.619C3273.46 632.152 3266.35 630.79 3258.95 630.79C3228.27 630.79 3203 653.846 3199.55 683.665C3192.19 677.965 3182.91 674.562 3172.87 674.562C3148.66 674.519 3129.09 694.129 3129.09 718.29Z" fill="#DCEAFF"/>
<path d="M3466.67 716.674H3348.43V719.864H3466.67V716.674Z" fill="#234460"/>
<path d="M3281.54 634.959L3278.43 634.278C3287.63 592.464 3325.41 562.135 3368.3 562.135V565.325C3326.9 565.282 3290.43 594.591 3281.54 634.959Z" fill="#234460"/>
<path d="M3026.89 845.946H2721.47C2719.81 841.437 2718.92 836.587 2718.92 831.525C2718.92 808.257 2737.77 789.456 2761 789.456C2766.53 789.456 2771.81 790.519 2776.66 792.476C2779.08 756.787 2808.87 728.542 2845.16 728.542C2878.01 728.542 2905.45 751.597 2912.22 782.394C2917.19 780.523 2922.6 779.502 2928.21 779.502C2951.53 779.502 2970.72 797.027 2973.32 819.657C2978.93 815.318 2985.95 812.724 2993.57 812.724C3011.99 812.724 3026.89 827.612 3026.89 845.946Z" fill="#DCEAFF"/>
<path d="M2867.33 844.372H2796.95V847.562H2867.33V844.372Z" fill="#234460"/>
<path d="M2971.78 819.827C2969.23 797.75 2950.55 781.118 2928.26 781.118C2922.94 781.118 2917.75 782.054 2912.81 783.926L2911.66 780.948C2916.94 778.949 2922.51 777.928 2928.21 777.928C2952.08 777.928 2972.17 795.794 2974.89 819.487L2971.78 819.827Z" fill="#234460"/>
<path d="M3163.77 1006.74L3171.94 1021.75L3186.95 1029.96L3171.94 1038.17L3163.77 1053.15L3155.55 1038.17L3140.53 1029.96L3155.55 1021.75L3163.77 1006.74Z" fill="#FFD357"/>
<path d="M2930.04 1907.34H2878.56C2878.56 1907.34 2914.43 1776.63 2871.37 1655.01L2870.94 1655.65C2870.94 1655.65 2795.12 1561.64 2789.08 1458.57C2783 1355.5 2805.76 1281.23 2769.34 1203.9C2748.15 1158.94 2768.53 1112.49 2804.18 1096.92C2829.84 1085.73 2863.45 1090.58 2895.2 1123.55C2971.02 1202.37 2914.85 1356.99 2910.34 1419.18C2906.64 1469.16 2918.73 1534.8 2923.53 1558.58L2923.7 1558.37C2923.75 1558.45 3018.25 1723.54 2930.04 1907.34Z" fill="#7074A0"/>
<path d="M2915.45 1912.36L2912.34 1911.73C2912.77 1909.73 2953.7 1709.54 2900.05 1643.48C2834.73 1563.13 2836.31 1422.12 2849.16 1317.99C2865.71 1183.48 2795.55 1107.34 2794.82 1106.57L2797.12 1104.36C2797.84 1105.13 2869.07 1182.29 2852.31 1318.33C2839.54 1421.86 2837.93 1561.94 2902.51 1641.44C2957.11 1708.69 2917.19 1904.11 2915.45 1912.36Z" fill="#234460"/>
<path d="M2922.13 1358.23L2918.98 1357.63C2931.41 1293.14 2952.21 1185.23 2894.05 1124.74L2896.35 1122.52C2955.66 1184.16 2934.68 1293.1 2922.13 1358.23Z" fill="#234460"/>
<path d="M2878.52 1907.34C2878.52 1907.34 2804.23 1767.86 2864.86 1620.85C2925.49 1473.8 3011.95 1435.9 3074.11 1367.71C3136.28 1299.48 3160.53 1258.56 3213.63 1282.81C3266.69 1307.05 3272.78 1405.61 3195.42 1479.88C3118.11 1554.15 3039.69 1550.88 2971.02 1652.67C2883.07 1783.05 2930.09 1907.34 2930.09 1907.34H2878.52Z" fill="#8D93F5"/>
<path d="M2854.01 1657.56L2850.95 1656.71C2854.31 1644.38 2858.52 1632.08 2863.41 1620.22C2884.81 1568.32 2910.6 1526.33 2944.51 1488.05L2946.89 1490.18C2913.19 1528.16 2887.62 1569.89 2866.35 1621.45C2861.5 1633.19 2857.37 1645.35 2854.01 1657.56Z" fill="#234460"/>
<path d="M2904.64 1913.26C2903.96 1911.26 2839.71 1713.59 2920.34 1608.52C2955.15 1563.17 3003.06 1527.87 3049.39 1493.75C3128.11 1435.73 3202.48 1380.98 3212.06 1282.64L3215.25 1282.93C3205.55 1382.69 3130.62 1437.9 3051.31 1496.3C3005.14 1530.29 2957.45 1565.47 2922.9 1610.43C2843.29 1714.14 2907.03 1910.24 2907.71 1912.19L2904.64 1913.26Z" fill="#234460"/>
<path d="M3030.97 1908.96C3030.97 1908.96 3010.46 1814.74 3094.88 1758.21C3179.3 1701.67 3230.91 1691.85 3230.91 1641.06C3230.91 1593.54 3203.85 1583.72 3176.83 1583.72C3147.04 1583.72 3059.09 1615.28 3021.1 1714.01C2992.42 1788.58 2992.42 1856.6 3001.44 1909H3030.97V1908.96Z" fill="#C8CBF8"/>
<path d="M3095.86 1759.61L3093.98 1756.85C3117.85 1740.85 3138.79 1728.81 3157.26 1718.14C3203.72 1691.34 3229.29 1676.58 3229.29 1641.06H3232.65C3232.65 1678.49 3204.91 1694.49 3158.96 1721.03C3140.49 1731.62 3119.6 1743.7 3095.86 1759.61Z" fill="#234460"/>
<path d="M3014.8 1907.39C3014.76 1906.83 3008.55 1849.37 3030.42 1784.54C3050.63 1724.64 3099.52 1645.95 3217.8 1611.28L3218.7 1614.34C3101.77 1648.63 3053.44 1726.35 3033.44 1785.47C3011.74 1849.66 3017.86 1906.49 3017.91 1907.09L3014.8 1907.39Z" fill="#234460"/>
</svg>
