<svg width="26" height="38" viewBox="0 0 26 38" fill="none" xmlns="http://www.w3.org/2000/svg">
<path d="M10.7792 12.9523L12.8781 15.0512L9.51988 18.4095L7.42097 16.3106C6.97564 15.8652 6.72546 15.2612 6.72546 14.6314C6.72546 14.0016 6.97564 13.3977 7.42097 12.9523C7.8663 12.507 8.4703 12.2568 9.1001 12.2568C9.72989 12.2568 10.3339 12.507 10.7792 12.9523Z" fill="#F2AD94"/>
<path d="M19.5947 28.491L20.015 28.0706C20.3488 27.7366 20.5363 27.2838 20.5363 26.8116C20.5363 26.3394 20.3488 25.8865 20.015 25.5525L17.915 23.453L18.3353 23.0327C18.6691 22.6986 18.8566 22.2458 18.8566 21.7736C18.8566 21.3014 18.6691 20.8486 18.3353 20.5146L16.2358 18.4151L19.5947 15.0562C19.8152 14.8357 19.9902 14.5739 20.1095 14.2857C20.2289 13.9975 20.2903 13.6887 20.2903 13.3768C20.2903 13.0649 20.2289 12.7561 20.1095 12.4679C19.9902 12.1797 19.8152 11.9179 19.5947 11.6974C19.3741 11.4768 19.1123 11.3019 18.8242 11.1825C18.536 11.0631 18.2272 11.0017 17.9153 11.0017C17.6034 11.0017 17.2945 11.0631 17.0064 11.1825C16.7182 11.3019 16.4564 11.4768 16.2358 11.6974L6.1593 21.7739C4.48909 23.4441 3.55078 25.7095 3.55078 28.0715C3.55078 30.4336 4.48909 32.6989 6.1593 34.3691C7.82954 36.0393 10.0949 36.9776 12.4569 36.9776C14.819 36.9776 17.0843 36.0393 18.7545 34.3691L20.8546 32.269C21.1882 31.935 21.3755 31.4823 21.3755 31.0103C21.3755 30.5382 21.1882 30.0855 20.8546 29.7515L19.5947 28.491Z" fill="#FCCAB1"/>
<path d="M7.94083 34.3692C6.27063 32.699 5.33231 30.4337 5.33231 28.0716C5.33231 25.7096 6.27063 23.4443 7.94083 21.774L18.0174 11.6969C18.2423 11.4714 18.5105 11.2937 18.8059 11.1744C18.3735 10.9996 17.8993 10.9559 17.4423 11.0488C16.9854 11.1418 16.5658 11.3672 16.2361 11.6969L6.15958 21.774C4.86102 23.0735 3.99607 24.7428 3.68328 26.5531C3.37048 28.3633 3.62515 30.226 4.41237 31.8859C5.19959 33.5458 6.48085 34.9216 8.08057 35.8249C9.68029 36.7281 11.5202 37.1146 13.3481 36.9313C11.3033 36.7293 9.39211 35.8238 7.94083 34.3692Z" fill="#FDDFD0"/>
<path d="M21.2746 29.3314L20.4344 28.4912C20.8795 28.0459 21.1295 27.442 21.1295 26.8124C21.1295 26.1828 20.8795 25.5789 20.4344 25.1336L18.7547 23.4532C19.1997 23.0079 19.4497 22.404 19.4497 21.7744C19.4497 21.1448 19.1997 20.5409 18.7547 20.0956L17.075 18.4159L20.0134 15.4762C20.297 15.2023 20.5231 14.8748 20.6787 14.5126C20.8343 14.1504 20.9162 13.7608 20.9196 13.3666C20.9231 12.9724 20.8479 12.5815 20.6987 12.2167C20.5494 11.8518 20.329 11.5203 20.0502 11.2416C19.7715 10.9629 19.44 10.7424 19.0752 10.5931C18.7103 10.4439 18.3194 10.3688 17.9252 10.3722C17.531 10.3756 17.1415 10.4575 16.7793 10.6131C16.4171 10.7687 16.0895 10.9948 15.8156 11.2784L12.8766 14.2175L11.1968 12.5377C10.9216 12.2601 10.5942 12.0396 10.2334 11.8889C9.87271 11.7381 9.48577 11.6601 9.09481 11.6593C8.70386 11.6585 8.3166 11.7349 7.95526 11.8842C7.59392 12.0335 7.26562 12.2526 6.98921 12.5291C6.71281 12.8056 6.49373 13.134 6.34457 13.4953C6.1954 13.8567 6.11908 14.244 6.11999 14.635C6.1209 15.0259 6.19903 15.4128 6.34987 15.7735C6.50072 16.1342 6.72133 16.4615 6.99902 16.7367L8.67814 18.4159L5.73908 21.3549C3.9576 23.1366 2.95686 25.5531 2.95703 28.0726C2.9572 30.5922 3.95825 33.0085 5.73997 34.79C7.52169 36.5715 9.93813 37.5722 12.4577 37.5721C14.9773 37.5719 17.3936 36.5708 19.1751 34.7891L21.2751 32.6896C21.7204 32.2442 21.9705 31.6403 21.9705 31.0105C21.9705 30.3807 21.7198 29.7767 21.2746 29.3314ZM7.83918 15.896C7.67154 15.7311 7.53821 15.5347 7.44688 15.318C7.35554 15.1013 7.30801 14.8687 7.30703 14.6336C7.30604 14.3984 7.35162 14.1654 7.44114 13.948C7.53065 13.7306 7.66233 13.533 7.82858 13.3667C7.99483 13.2004 8.19235 13.0687 8.40976 12.9791C8.62717 12.8896 8.86017 12.8439 9.0953 12.8449C9.33044 12.8458 9.56307 12.8933 9.77976 12.9845C9.99646 13.0758 10.1929 13.2091 10.3579 13.3767L12.0376 15.0558L9.5183 17.5751L7.83918 15.896ZM20.4344 31.85L18.3349 33.9496C16.7759 35.5085 14.6615 36.3843 12.4568 36.3843C10.252 36.3843 8.13762 35.5085 6.57864 33.9496C5.01967 32.3906 4.14384 30.2761 4.14384 28.0714C4.14384 25.8667 5.01967 23.7523 6.57864 22.1933L16.6558 12.1174C16.8207 11.9497 17.0171 11.8164 17.2338 11.7251C17.4505 11.6337 17.6831 11.5862 17.9182 11.5852C18.1533 11.5842 18.3863 11.6298 18.6038 11.7193C18.8212 11.8088 19.0188 11.9405 19.1851 12.1068C19.3513 12.273 19.4831 12.4705 19.5726 12.688C19.6622 12.9054 19.7078 13.1384 19.7069 13.3735C19.706 13.6086 19.6585 13.8413 19.5672 14.0579C19.4759 14.2746 19.3426 14.4711 19.1751 14.6361L15.8168 17.9955C15.8031 18.0091 15.7978 18.0276 15.7853 18.0424C15.7729 18.0572 15.7509 18.0608 15.7361 18.0751L9.5183 24.2928C9.46159 24.3476 9.41636 24.4131 9.38524 24.4855C9.35412 24.558 9.33774 24.6359 9.33706 24.7147C9.33637 24.7936 9.3514 24.8717 9.38125 24.9447C9.4111 25.0177 9.45519 25.084 9.51094 25.1397C9.56669 25.1955 9.63298 25.2396 9.70595 25.2694C9.77892 25.2993 9.85711 25.3143 9.93594 25.3136C10.0148 25.3129 10.0927 25.2965 10.1651 25.2654C10.2376 25.2343 10.3031 25.1891 10.3579 25.1324L16.236 19.2542L17.9157 20.9346C18.1381 21.1572 18.2631 21.4591 18.2631 21.7738C18.2631 22.0886 18.1381 22.3904 17.9157 22.6131L17.4953 23.0335C17.484 23.0453 17.4799 23.0608 17.4692 23.0732C17.4585 23.0857 17.4401 23.0887 17.4276 23.1005L12.8771 27.6516C12.8204 27.7064 12.7752 27.7719 12.7441 27.8444C12.713 27.9168 12.6966 27.9947 12.6959 28.0736C12.6952 28.1524 12.7102 28.2306 12.7401 28.3036C12.7699 28.3765 12.814 28.4428 12.8698 28.4986C12.9255 28.5543 12.9918 28.5984 13.0648 28.6283C13.1378 28.6581 13.216 28.6731 13.2948 28.6724C13.3736 28.6718 13.4515 28.6554 13.524 28.6243C13.5964 28.5931 13.6619 28.5479 13.7167 28.4912L17.9151 24.2928L19.5948 25.9725C19.8173 26.1952 19.9422 26.497 19.9422 26.8118C19.9422 27.1265 19.8173 27.4284 19.5948 27.6511L19.1745 28.0714C19.1644 28.0854 19.1551 28.0998 19.1466 28.1148C19.1329 28.1261 19.1163 28.1302 19.1032 28.1427L16.236 31.0105C16.1793 31.0653 16.134 31.1308 16.1029 31.2032C16.0718 31.2757 16.0554 31.3536 16.0547 31.4324C16.0541 31.5112 16.0691 31.5894 16.0989 31.6624C16.1288 31.7354 16.1729 31.8017 16.2286 31.8574C16.2844 31.9132 16.3507 31.9572 16.4236 31.9871C16.4966 32.017 16.5748 32.032 16.6536 32.0313C16.7325 32.0306 16.8104 32.0142 16.8828 31.9831C16.9553 31.952 17.0208 31.9068 17.0755 31.85L19.5942 29.3314L20.4344 30.1715C20.657 30.3942 20.7821 30.6962 20.7821 31.0111C20.7821 31.326 20.657 31.628 20.4344 31.8506V31.85Z" fill="black"/>
<path d="M17.572 7.52697C19.7273 5.56819 18.7001 1.24153 16.0283 1.1875H15.9689C15.355 1.21238 14.7588 1.39987 14.2411 1.73078C13.7235 2.06169 13.303 2.52416 13.0227 3.07087C12.7422 2.52419 12.3216 2.06177 11.8039 1.73087C11.2862 1.39997 10.6899 1.21246 10.0759 1.1875H10.0166C7.35062 1.24094 6.27593 5.51534 8.36949 7.55903L13.0001 11.875L17.572 7.52697Z" fill="#F46972"/>
<path d="M10.1501 7.55963C8.2733 5.72969 8.94483 2.12206 11.0176 1.34544C10.7143 1.2422 10.3963 1.18887 10.0759 1.1875H10.0166C7.35062 1.24094 6.27593 5.51534 8.36949 7.55903L13.0001 11.875L13.8819 11.0366L10.1501 7.55963Z" fill="#F8A5AA"/>
<path d="M13.0001 12.4688C12.8497 12.4687 12.705 12.4116 12.5951 12.309L7.96388 7.99366C7.33435 7.32421 6.91063 6.48783 6.74324 5.58426C6.57585 4.68068 6.67186 3.74803 7.01981 2.8975C7.22556 2.25656 7.62101 1.69317 8.15385 1.28182C8.6867 0.870465 9.33185 0.630534 10.004 0.59375H10.0758C10.643 0.605326 11.2007 0.740974 11.7098 0.99116C12.2189 1.24135 12.667 1.6 13.0226 2.04191C13.3781 1.59998 13.8261 1.24131 14.3351 0.991119C14.8441 0.740927 15.4018 0.605291 15.9688 0.59375H16.0466C16.7225 0.631202 17.3704 0.876395 17.9017 1.29584C18.4331 1.71529 18.822 2.28853 19.0153 2.93728C19.3503 3.7845 19.4308 4.71102 19.2471 5.60334C19.0634 6.49565 18.6234 7.315 17.981 7.961L13.4092 12.3049C13.2989 12.41 13.1524 12.4686 13.0001 12.4688ZM10.0758 1.78125C9.63316 1.8171 9.21117 1.98391 8.8636 2.26041C8.51604 2.53692 8.25864 2.91061 8.12419 3.33391C7.86223 3.96458 7.7851 4.65676 7.9018 5.32963C8.0185 6.0025 8.32422 6.62828 8.78325 7.13391L12.9959 11.0592L17.1658 7.09591L17.1747 7.08759C17.6431 6.60184 17.961 5.99097 18.0901 5.32863C18.2191 4.66629 18.1538 3.98076 17.9021 3.35469C17.7275 2.88978 17.1943 1.80559 16.0169 1.78125C15.4994 1.8008 14.9964 1.95815 14.56 2.23705C14.1236 2.51595 13.7696 2.90628 13.5344 3.36775C13.4782 3.4525 13.4018 3.52202 13.3121 3.5701C13.2225 3.61819 13.1223 3.64335 13.0205 3.64335C12.9188 3.64335 12.8186 3.61819 12.729 3.5701C12.6393 3.52202 12.5629 3.4525 12.5067 3.36775C12.2768 2.91293 11.931 2.52677 11.5042 2.24823C11.0774 1.96969 10.5847 1.80862 10.0758 1.78125Z" fill="black"/>
<path d="M17.0367 3.41477C17.2007 3.13079 16.9883 2.70121 16.5623 2.45527C16.1363 2.20933 15.6581 2.24016 15.4941 2.52414C15.3302 2.80812 15.5426 3.2377 15.9685 3.48364C16.3945 3.72958 16.8727 3.69875 17.0367 3.41477Z" fill="white"/>
<path d="M23.2678 9.08031C23.1565 9.19162 23.0055 9.25416 22.848 9.25416C22.6906 9.25416 22.5396 9.19162 22.4283 9.08031L22.0085 8.66053C21.9003 8.54855 21.8405 8.39857 21.8418 8.24289C21.8432 8.08721 21.9056 7.93829 22.0157 7.8282C22.1258 7.71812 22.2747 7.65567 22.4304 7.65432C22.5861 7.65297 22.736 7.71281 22.848 7.82097L23.2678 8.24075C23.3791 8.3521 23.4417 8.50309 23.4417 8.66053C23.4417 8.81797 23.3791 8.96897 23.2678 9.08031Z" fill="black"/>
<path d="M25.3664 11.1792C25.2551 11.2905 25.1041 11.353 24.9467 11.353C24.7892 11.353 24.6382 11.2905 24.5269 11.1792L24.1071 10.7594C23.9989 10.6474 23.9391 10.4974 23.9405 10.3418C23.9418 10.1861 24.0042 10.0372 24.1143 9.92708C24.2244 9.81699 24.3733 9.75455 24.529 9.7532C24.6847 9.75184 24.8347 9.81169 24.9467 9.91985L25.3664 10.3396C25.4778 10.451 25.5403 10.602 25.5403 10.7594C25.5403 10.9168 25.4778 11.0678 25.3664 11.1792Z" fill="black"/>
<path d="M25.3664 8.66053L24.9467 9.08031C24.8347 9.18847 24.6847 9.24832 24.529 9.24696C24.3733 9.24561 24.2244 9.18317 24.1143 9.07308C24.0042 8.96299 23.9418 8.81407 23.9405 8.6584C23.9391 8.50272 23.9989 8.35273 24.1071 8.24075L24.5269 7.82097C24.6389 7.71281 24.7888 7.65297 24.9445 7.65432C25.1002 7.65567 25.2491 7.71812 25.3592 7.8282C25.4693 7.93829 25.5317 8.08721 25.5331 8.24289C25.5344 8.39857 25.4746 8.54855 25.3664 8.66053Z" fill="black"/>
<path d="M23.2678 10.7594L22.848 11.1792C22.7932 11.2359 22.7277 11.2811 22.6552 11.3122C22.5828 11.3434 22.5049 11.3597 22.4261 11.3604C22.3472 11.3611 22.269 11.3461 22.1961 11.3162C22.1231 11.2864 22.0568 11.2423 22.0011 11.1865C21.9453 11.1308 21.9012 11.0645 21.8714 10.9915C21.8415 10.9186 21.8265 10.8404 21.8272 10.7615C21.8279 10.6827 21.8442 10.6048 21.8754 10.5324C21.9065 10.4599 21.9517 10.3944 22.0084 10.3396L22.4282 9.91985C22.5402 9.81169 22.6902 9.75184 22.8458 9.7532C23.0015 9.75455 23.1504 9.81699 23.2605 9.92708C23.3706 10.0372 23.4331 10.1861 23.4344 10.3418C23.4358 10.4974 23.3759 10.6474 23.2678 10.7594Z" fill="black"/>
<path d="M1.89276 16.2053C1.78141 16.3166 1.63042 16.3791 1.47298 16.3791C1.31553 16.3791 1.16454 16.3166 1.05319 16.2053L0.633413 15.7855C0.576704 15.7307 0.531471 15.6652 0.500353 15.5927C0.469235 15.5203 0.452856 15.4424 0.452171 15.3636C0.451486 15.2847 0.466509 15.2065 0.496363 15.1336C0.526217 15.0606 0.570305 14.9943 0.626054 14.9386C0.681802 14.8828 0.748096 14.8387 0.821065 14.8089C0.894035 14.779 0.97222 14.764 1.05106 14.7647C1.1299 14.7654 1.20781 14.7817 1.28025 14.8129C1.35269 14.844 1.4182 14.8892 1.47298 14.9459L1.89276 15.3657C2.00407 15.477 2.0666 15.628 2.0666 15.7855C2.0666 15.9429 2.00407 16.0939 1.89276 16.2053Z" fill="black"/>
<path d="M3.99145 18.3042C3.8801 18.4155 3.72911 18.478 3.57167 18.478C3.41422 18.478 3.26323 18.4155 3.15188 18.3042L2.7321 17.8844C2.62395 17.7724 2.5641 17.6224 2.56545 17.4668C2.5668 17.3111 2.62925 17.1622 2.73933 17.0521C2.84942 16.942 2.99834 16.8795 3.15402 16.8782C3.3097 16.8768 3.45968 16.9367 3.57167 17.0448L3.99145 17.4646C4.10276 17.576 4.16529 17.727 4.16529 17.8844C4.16529 18.0418 4.10276 18.1928 3.99145 18.3042Z" fill="black"/>
<path d="M3.99145 15.7855L3.57167 16.2053C3.45968 16.3134 3.3097 16.3733 3.15402 16.3719C2.99834 16.3706 2.84942 16.3081 2.73933 16.198C2.62925 16.0879 2.5668 15.939 2.56545 15.7833C2.5641 15.6277 2.62395 15.4777 2.7321 15.3657L3.15188 14.9459C3.20665 14.8892 3.27217 14.844 3.34461 14.8129C3.41705 14.7817 3.49496 14.7654 3.5738 14.7647C3.65264 14.764 3.73082 14.779 3.80379 14.8089C3.87676 14.8387 3.94306 14.8828 3.99881 14.9386C4.05455 14.9943 4.09864 15.0606 4.1285 15.1336C4.15835 15.2065 4.17337 15.2847 4.17269 15.3636C4.172 15.4424 4.15562 15.5203 4.12451 15.5927C4.09339 15.6652 4.04815 15.7307 3.99145 15.7855Z" fill="black"/>
<path d="M1.89276 17.8844L1.47298 18.3042C1.4182 18.3609 1.35269 18.4061 1.28025 18.4372C1.20781 18.4684 1.1299 18.4847 1.05106 18.4854C0.97222 18.4861 0.894035 18.4711 0.821065 18.4412C0.748096 18.4114 0.681802 18.3673 0.626054 18.3115C0.570305 18.2558 0.526217 18.1895 0.496363 18.1165C0.466509 18.0436 0.451486 17.9654 0.452171 17.8865C0.452856 17.8077 0.469235 17.7298 0.500353 17.6574C0.531471 17.5849 0.576704 17.5194 0.633413 17.4646L1.05319 17.0448C1.16518 16.9367 1.31516 16.8768 1.47084 16.8782C1.62652 16.8795 1.77544 16.942 1.88552 17.0521C1.99561 17.1622 2.05805 17.3111 2.05941 17.4668C2.06076 17.6224 2.00091 17.7724 1.89276 17.8844Z" fill="black"/>
</svg>
