<svg xmlns="http://www.w3.org/2000/svg" xmlns:xlink="http://www.w3.org/1999/xlink" width="495" height="499" viewBox="0 0 495 499">
  <defs>
    <linearGradient id="linear-gradient" y1="0.5" x2="1" y2="0.5" gradientUnits="objectBoundingBox">
      <stop offset="0" stop-color="#ff8a00"/>
      <stop offset="1" stop-color="#ffbc00"/>
    </linearGradient>
    <clipPath id="clip-login_bg">
      <rect width="495" height="499"/>
    </clipPath>
  </defs>
  <g id="login_bg" clip-path="url(#clip-login_bg)">
    <rect width="495" height="499" fill="#fff"/>
    <path id="Path_35935" data-name="Path 35935" d="M0,0H500V500H0Z" fill="#fff2e3"/>
    <g id="Group_27655" data-name="Group 27655" transform="translate(-2837 -505)">
      <path id="Path_35921" data-name="Path 35921" d="M428.55,158.174c27.844,56.688,93.433,21.9,88.346-44.269-2.112-27.47-9.611-47.7,8.64-71.4,4.525-5.875,8.454-12.21,12.663-18.329,7.78-11.315,7.849-31.968-4.185-46.937C516.59-44.432,494.661-62.3,471.912-78.3c-29.755-20.934-64.746-27.07-84.552,4.767-11.551,18.568-13.376,37.38-34.855,43.312-12.557,3.467-21.19,6.112-29.918,17.272C306.965,7.024,308.128-.364,294.672,7.239c-32.338,18.273-22.021,62.793,10.713,81.5,21.806,12.461,44.936,7.439,58.014,7.016C410.641,94.221,405.954,112.173,428.55,158.174Z" transform="translate(2837 505)" opacity="0.07" fill="url(#linear-gradient)"/>
      <path id="Path_35922" data-name="Path 35922" d="M155.182-138.526c-3.926,20.734,8.592,40.761,25.9,51.152,19.573,11.752,36.44,16.514,40.52,39.488,1.32,7.428,3.493,17.912,6.905,24.7,12.546,24.939,41.675,17.527,63.545,17,20.531-.493,33.907,11.16,54.594,27.947.13.106,43.381,55.15,63.247.562,3.682-10.117,4.564-18.415,6.141-23.961,6.2-21.821,26.113-21.079,56.271-33.922,38.168-16.255,50.487-60.737,9.549-75.62-15.733-5.721-29.344-6.532-44.434-13.933-30.835-15.123-27.692-46.172-54.453-59.56-9.584-5.961-23.991-7.324-33.792-5.756-37.739,6.04-52.415,20.96-79.7,12.782-9.273-2.779-20.827-8.084-34.636-10.229C199.258-193.4,161.359-171.14,155.182-138.526Z" transform="translate(2929.367 562.169)" fill="#636363" style="mix-blend-mode: overlay;isolation: isolate"/>
    </g>
    <g id="Group_27657" data-name="Group 27657" transform="translate(2888.029 2143.409) rotate(-158)">
      <path id="Path_35921-2" data-name="Path 35921" d="M428.55,158.174c27.844,56.688,93.433,21.9,88.346-44.269-2.112-27.47-9.611-47.7,8.64-71.4,4.525-5.875,8.454-12.21,12.663-18.329,7.78-11.315,7.849-31.968-4.185-46.937C516.59-44.432,494.661-62.3,471.912-78.3c-29.755-20.934-64.746-27.07-84.552,4.767-11.551,18.568-13.376,37.38-34.855,43.312-12.557,3.467-21.19,6.112-29.918,17.272C306.965,7.024,308.128-.364,294.672,7.239c-32.338,18.273-22.021,62.793,10.713,81.5,21.806,12.461,44.936,7.439,58.014,7.016C410.641,94.221,405.954,112.173,428.55,158.174Z" transform="translate(2837 505)" opacity="0.07" fill="url(#linear-gradient)"/>
      <path id="Path_35922-2" data-name="Path 35922" d="M155.182-138.526c-3.926,20.734,8.592,40.761,25.9,51.152,19.573,11.752,36.44,16.514,40.52,39.488,1.32,7.428,3.493,17.912,6.905,24.7,12.546,24.939,41.675,17.527,63.545,17,20.531-.493,33.907,11.16,54.594,27.947.13.106,43.381,55.15,63.247.562,3.682-10.117,4.564-18.415,6.141-23.961,6.2-21.821,26.113-21.079,56.271-33.922,38.168-16.255,50.487-60.737,9.549-75.62-15.733-5.721-29.344-6.532-44.434-13.933-30.835-15.123-27.692-46.172-54.453-59.56-9.584-5.961-23.991-7.324-33.792-5.756-37.739,6.04-52.415,20.96-79.7,12.782-9.273-2.779-20.827-8.084-34.636-10.229C199.258-193.4,161.359-171.14,155.182-138.526Z" transform="translate(2929.367 562.169)" fill="#636363" style="mix-blend-mode: overlay;isolation: isolate"/>
    </g>
    <g id="Group_27650" data-name="Group 27650" transform="translate(-493 45.232)" opacity="0.86" style="mix-blend-mode: overlay;isolation: isolate">
      <g id="Group_27645" data-name="Group 27645">
        <path id="Path_35930" data-name="Path 35930" d="M522.142,80.652A98.257,98.257,0,0,1,452.2,51.7a98.26,98.26,0,0,1-28.949-69.946A98.26,98.26,0,0,1,452.2-88.19a98.257,98.257,0,0,1,69.947-28.95,98.257,98.257,0,0,1,69.946,28.95,98.26,98.26,0,0,1,28.949,69.946A98.26,98.26,0,0,1,592.088,51.7,98.257,98.257,0,0,1,522.142,80.652Zm0-197.292a98.507,98.507,0,0,0-98.4,98.4,98.508,98.508,0,0,0,98.4,98.4,98.508,98.508,0,0,0,98.395-98.4A98.507,98.507,0,0,0,522.142-116.64Z" fill="#a5795b" stroke="#7e441c" stroke-width="1"/>
      </g>
      <g id="Group_27646" data-name="Group 27646">
        <path id="Path_35931" data-name="Path 35931" d="M522.142,68.321a86.663,86.663,0,0,1-86.565-86.565,86.663,86.663,0,0,1,86.565-86.565,86.663,86.663,0,0,1,86.565,86.565A86.663,86.663,0,0,1,522.142,68.321Zm0-172.63a86.162,86.162,0,0,0-86.065,86.065,86.162,86.162,0,0,0,86.065,86.065,86.163,86.163,0,0,0,86.065-86.065A86.163,86.163,0,0,0,522.142-104.309Z" fill="#a5795b" stroke="#7e441c" stroke-width="1"/>
      </g>
      <g id="Group_27647" data-name="Group 27647">
        <path id="Path_35932" data-name="Path 35932" d="M522.142,55.99a74.319,74.319,0,0,1-74.235-74.234,74.319,74.319,0,0,1,74.235-74.234,74.318,74.318,0,0,1,74.234,74.234A74.318,74.318,0,0,1,522.142,55.99Zm0-147.968a73.818,73.818,0,0,0-73.735,73.734A73.818,73.818,0,0,0,522.142,55.49a73.818,73.818,0,0,0,73.734-73.734A73.818,73.818,0,0,0,522.142-91.978Z" fill="#a5795b" stroke="#7e441c" stroke-width="1"/>
      </g>
      <g id="Group_27648" data-name="Group 27648">
        <path id="Path_35933" data-name="Path 35933" d="M522.142,43.659a61.973,61.973,0,0,1-61.9-61.9,61.974,61.974,0,0,1,61.9-61.9,61.974,61.974,0,0,1,61.9,61.9A61.973,61.973,0,0,1,522.142,43.659Zm0-123.307a61.474,61.474,0,0,0-61.4,61.4,61.473,61.473,0,0,0,61.4,61.4,61.472,61.472,0,0,0,61.4-61.4A61.473,61.473,0,0,0,522.142-79.648Z" fill="#a5795b" stroke="#7e441c" stroke-width="1"/>
      </g>
      <g id="Group_27649" data-name="Group 27649">
        <path id="Path_35934" data-name="Path 35934" d="M522.142,31.329a49.629,49.629,0,0,1-49.573-49.573,49.629,49.629,0,0,1,49.573-49.573,49.629,49.629,0,0,1,49.573,49.573A49.629,49.629,0,0,1,522.142,31.329Zm0-98.646a49.129,49.129,0,0,0-49.073,49.073,49.129,49.129,0,0,0,49.073,49.073,49.129,49.129,0,0,0,49.073-49.073A49.129,49.129,0,0,0,522.142-67.317Z" fill="#a5795b" stroke="#7e441c" stroke-width="1"/>
      </g>
    </g>
    <g id="Group_27658" data-name="Group 27658" transform="translate(-51 494.232)" opacity="0.86" style="mix-blend-mode: overlay;isolation: isolate">
      <g id="Group_27645-2" data-name="Group 27645">
        <path id="Path_35930-2" data-name="Path 35930" d="M522.142,80.652A98.257,98.257,0,0,1,452.2,51.7a98.26,98.26,0,0,1-28.949-69.946A98.26,98.26,0,0,1,452.2-88.19a98.257,98.257,0,0,1,69.947-28.95,98.257,98.257,0,0,1,69.946,28.95,98.26,98.26,0,0,1,28.949,69.946A98.26,98.26,0,0,1,592.088,51.7,98.257,98.257,0,0,1,522.142,80.652Zm0-197.292a98.507,98.507,0,0,0-98.4,98.4,98.508,98.508,0,0,0,98.4,98.4,98.508,98.508,0,0,0,98.395-98.4A98.507,98.507,0,0,0,522.142-116.64Z" fill="#a5795b" stroke="#7e441c" stroke-width="1"/>
      </g>
      <g id="Group_27646-2" data-name="Group 27646">
        <path id="Path_35931-2" data-name="Path 35931" d="M522.142,68.321a86.663,86.663,0,0,1-86.565-86.565,86.663,86.663,0,0,1,86.565-86.565,86.663,86.663,0,0,1,86.565,86.565A86.663,86.663,0,0,1,522.142,68.321Zm0-172.63a86.162,86.162,0,0,0-86.065,86.065,86.162,86.162,0,0,0,86.065,86.065,86.163,86.163,0,0,0,86.065-86.065A86.163,86.163,0,0,0,522.142-104.309Z" fill="#a5795b" stroke="#7e441c" stroke-width="1"/>
      </g>
      <g id="Group_27647-2" data-name="Group 27647">
        <path id="Path_35932-2" data-name="Path 35932" d="M522.142,55.99a74.319,74.319,0,0,1-74.235-74.234,74.319,74.319,0,0,1,74.235-74.234,74.318,74.318,0,0,1,74.234,74.234A74.318,74.318,0,0,1,522.142,55.99Zm0-147.968a73.818,73.818,0,0,0-73.735,73.734A73.818,73.818,0,0,0,522.142,55.49a73.818,73.818,0,0,0,73.734-73.734A73.818,73.818,0,0,0,522.142-91.978Z" fill="#a5795b" stroke="#7e441c" stroke-width="1"/>
      </g>
      <g id="Group_27648-2" data-name="Group 27648">
        <path id="Path_35933-2" data-name="Path 35933" d="M522.142,43.659a61.973,61.973,0,0,1-61.9-61.9,61.974,61.974,0,0,1,61.9-61.9,61.974,61.974,0,0,1,61.9,61.9A61.973,61.973,0,0,1,522.142,43.659Zm0-123.307a61.474,61.474,0,0,0-61.4,61.4,61.473,61.473,0,0,0,61.4,61.4,61.472,61.472,0,0,0,61.4-61.4A61.473,61.473,0,0,0,522.142-79.648Z" fill="#a5795b" stroke="#7e441c" stroke-width="1"/>
      </g>
      <g id="Group_27649-2" data-name="Group 27649">
        <path id="Path_35934-2" data-name="Path 35934" d="M522.142,31.329a49.629,49.629,0,0,1-49.573-49.573,49.629,49.629,0,0,1,49.573-49.573,49.629,49.629,0,0,1,49.573,49.573A49.629,49.629,0,0,1,522.142,31.329Zm0-98.646a49.129,49.129,0,0,0-49.073,49.073,49.129,49.129,0,0,0,49.073,49.073,49.129,49.129,0,0,0,49.073-49.073A49.129,49.129,0,0,0,522.142-67.317Z" fill="#a5795b" stroke="#7e441c" stroke-width="1"/>
      </g>
    </g>
  </g>
</svg>
