<svg width="246" height="43" viewBox="0 0 246 43" fill="none" xmlns="http://www.w3.org/2000/svg">
<path d="M19.4999 30.1174C19.5062 31.3859 19.2586 32.6431 18.7715 33.8169C18.2843 34.9906 17.5671 36.0577 16.6611 36.9569C15.7552 37.856 14.6782 38.5696 13.4922 39.0564C12.3061 39.5433 11.0344 39.7939 9.75 39.7939C8.4656 39.7939 7.19385 39.5433 6.00782 39.0564C4.82179 38.5696 3.74484 37.856 2.83886 36.9569C1.93287 36.0577 1.2157 34.9906 0.728542 33.8169C0.241381 32.6431 -0.00616882 31.3859 0.000116762 30.1174C0.000116762 29.4789 0.256918 28.8666 0.714031 28.4152C1.17114 27.9637 1.79112 27.7101 2.43757 27.7101C3.08403 27.7101 3.70401 27.9637 4.16112 28.4152C4.61823 28.8666 4.87503 29.4789 4.87503 30.1174C4.87504 31.0696 5.16096 32.0005 5.69664 32.7923C6.23231 33.584 6.99368 34.2011 7.88447 34.5655C8.77525 34.93 9.75544 35.0253 10.7011 34.8395C11.6467 34.6537 12.5154 34.1952 13.1971 33.5218C13.8789 32.8485 14.3432 31.9906 14.5313 31.0566C14.7194 30.1227 14.6228 29.1546 14.2539 28.2748C13.8849 27.395 13.26 26.6431 12.4583 26.1141C11.6567 25.585 10.7141 25.3027 9.74995 25.3027C7.82159 25.3027 5.93654 24.7379 4.33317 23.6798C2.7298 22.6217 1.48013 21.1178 0.742183 19.3583C0.00423703 17.5988 -0.188837 15.6626 0.187373 13.7947C0.563583 11.9268 1.49218 10.211 2.85574 8.8643C4.2193 7.51761 5.95658 6.60051 7.84789 6.22896C9.73919 5.85742 11.6996 6.04813 13.4811 6.77697C15.2627 7.5058 16.7854 8.74003 17.8568 10.3236C18.9281 11.9071 19.4999 13.7689 19.4999 15.6734C19.503 15.9904 19.4421 16.3048 19.3208 16.5983C19.1994 16.8918 19.02 17.1584 18.793 17.3825C18.566 17.6067 18.2961 17.7839 17.9989 17.9037C17.7018 18.0236 17.3834 18.0837 17.0625 18.0806C16.4166 18.0788 15.7977 17.8246 15.341 17.3735C14.8843 16.9225 14.6268 16.3113 14.625 15.6734C14.625 14.7211 14.3391 13.7903 13.8034 12.9985C13.2678 12.2067 12.5064 11.5896 11.6157 11.2251C10.7249 10.8607 9.74468 10.7653 8.79902 10.9511C7.85337 11.1368 6.98472 11.5954 6.30293 12.2687C5.62114 12.9421 5.15683 13.7999 4.96871 14.7339C4.7806 15.6679 4.87712 16.6359 5.24609 17.5157C5.61505 18.3955 6.23988 19.1475 7.04156 19.6765C7.84324 20.2056 8.78577 20.4879 9.74995 20.488C12.3335 20.4954 14.809 21.5124 16.6359 23.3166C18.4627 25.1209 19.4923 27.5658 19.4999 30.1174Z" fill="#281E15"/>
<path d="M46.4999 27.6063V37.3659C46.5031 37.6836 46.4433 37.9987 46.324 38.2932C46.2047 38.5876 46.0281 38.8555 45.8046 39.0813C45.5811 39.3071 45.3151 39.4863 45.0219 39.6086C44.7287 39.731 44.4141 39.7939 44.0964 39.7939C43.7787 39.7939 43.4641 39.731 43.1709 39.6086C42.8777 39.4863 42.6117 39.3071 42.3882 39.0813C42.1647 38.8555 41.9881 38.5876 41.8688 38.2932C41.7494 37.9987 41.6897 37.6836 41.6929 37.3659V27.6063C41.6929 25.6489 40.9153 23.7717 39.5312 22.3876C38.1471 21.0035 36.2699 20.2259 34.3125 20.2259C32.3551 20.2259 30.4779 21.0035 29.0938 22.3876C27.7097 23.7717 26.9321 25.6489 26.9321 27.6063V37.3659C26.9353 37.6836 26.8756 37.9987 26.7562 38.2932C26.6369 38.5876 26.4604 38.8555 26.2369 39.0813C26.0133 39.3071 25.7473 39.4863 25.4541 39.6086C25.1609 39.731 24.8463 39.7939 24.5286 39.7939C24.2109 39.7939 23.8963 39.731 23.6031 39.6086C23.3099 39.4863 23.0439 39.3071 22.8204 39.0813C22.5969 38.8555 22.4203 38.5876 22.301 38.2932C22.1817 37.9987 22.1219 37.6836 22.1251 37.3659V27.6063C22.1251 24.374 23.4092 21.2741 25.6947 18.9885C27.9803 16.703 31.0802 15.4189 34.3125 15.4189C37.5448 15.4189 40.6447 16.703 42.9303 18.9885C45.2159 21.2741 46.4999 24.374 46.4999 27.6063Z" fill="#281E15"/>
<path d="M92.9726 26.908C93.013 27.4884 93.0087 28.071 92.9597 28.6506C92.5414 33.5616 88.8513 38.0218 84.127 39.3266C79.4028 40.6314 73.9666 38.6918 71.1148 34.6839C70.1225 33.2693 69.4202 31.67 69.0489 29.9794C68.8614 29.1446 68.7473 28.2949 68.708 27.4399C68.6107 25.352 68.252 23.5517 66.5936 22.1134C65.1331 20.8561 63.2617 20.1873 61.3401 20.236C59.4186 20.3061 57.6013 21.1324 56.2791 22.537C54.957 23.9416 54.2358 25.8123 54.2706 27.7465C54.3055 29.6807 55.0937 31.5238 56.4656 32.8793C57.8374 34.2347 59.6834 34.9941 61.6061 34.9941C63.0033 34.9952 64.3712 34.5907 65.5456 33.8292C65.8066 33.6542 66.1004 33.5346 66.4089 33.4776C66.7174 33.4206 67.0343 33.4275 67.3401 33.4978C67.6459 33.5681 67.9342 33.7003 68.1876 33.8864C68.4409 34.0726 68.6539 34.3087 68.8135 34.5804C68.8432 34.6324 68.8732 34.6843 68.9035 34.736C69.2048 35.2534 69.2953 35.8682 69.1559 36.4512C69.0166 37.0343 68.6582 37.5404 68.1559 37.8634C66.1733 39.1436 63.8626 39.8143 61.5069 39.7935C59.1511 39.7726 56.8525 39.0611 54.8926 37.746C52.9326 36.4309 51.3963 34.5694 50.4717 32.3893C49.5472 30.2091 49.2746 27.8051 49.6873 25.4715C50.1 23.1379 51.1801 20.976 52.7953 19.2505C54.4105 17.5251 56.4907 16.3109 58.7812 15.7567C61.0718 15.2026 63.4732 15.3324 65.6916 16.1304C67.9099 16.9284 69.8488 18.3599 71.2708 20.2496C72.0528 21.2745 72.6725 22.415 73.108 23.6305C73.6259 25.1202 73.4339 26.5886 73.6163 28.1137C73.7772 29.5858 74.3361 30.9852 75.2323 32.16C77.1237 34.5731 80.6236 35.5559 83.485 34.4801C86.3463 33.4044 88.3476 30.3561 88.2115 27.2858C88.0755 24.2156 85.8148 21.3599 82.8721 20.5361C80.8555 19.9716 78.6243 20.3897 76.8726 21.5305C76.6043 21.7023 76.3042 21.8172 75.9903 21.8684C75.6765 21.9195 75.3556 21.9058 75.0472 21.828C74.7388 21.7503 74.4494 21.6102 74.1966 21.4162C73.9438 21.2222 73.733 20.9784 73.5769 20.6997C73.5685 20.6847 73.56 20.6697 73.5515 20.6547C73.2495 20.1251 73.1614 19.4989 73.3057 18.9059C73.4499 18.3128 73.8154 17.7983 74.3263 17.4688C77.7678 15.2657 82.352 14.8661 86.0614 16.6182C89.9716 18.465 92.6746 22.5914 92.9726 26.908Z" fill="#281E15"/>
<path d="M115.875 37.3662C115.876 38.002 115.628 38.6126 115.185 39.0667C114.742 39.5207 114.139 39.7819 113.505 39.7939H98.4663C98.0132 39.7946 97.569 39.6675 97.1843 39.4272C96.7996 39.1869 96.4898 38.8429 96.2902 38.4345C96.0765 38.0285 95.9855 37.5687 96.0285 37.1115C96.0714 36.6543 96.2464 36.2197 96.532 35.861L108.621 20.2264H98.3696C97.7365 20.2144 97.1335 19.9533 96.6903 19.4993C96.2471 19.0452 95.9992 18.4346 96 17.7988C96.001 17.1681 96.251 16.5636 96.6952 16.1176C97.1393 15.6716 97.7415 15.4206 98.3696 15.4196H113.409C113.864 15.4088 114.312 15.5317 114.699 15.7732C115.085 16.0147 115.393 16.3643 115.585 16.7791C115.797 17.1769 115.888 17.629 115.845 18.0783C115.802 18.5276 115.627 18.9541 115.343 19.304L103.254 34.9871H113.505C114.134 34.9881 114.736 35.2391 115.18 35.685C115.624 36.131 115.874 36.7355 115.875 37.3662Z" fill="#281E15"/>
<path d="M142.5 27.6063C142.498 27.9223 142.434 28.2348 142.31 28.5258C142.187 28.8168 142.007 29.0805 141.782 29.3017C141.556 29.5229 141.289 29.6972 140.995 29.8146C140.702 29.932 140.388 29.9901 140.072 29.9856H123.317C123.817 31.4434 124.759 32.7089 126.013 33.6054C127.267 34.502 128.769 34.985 130.31 34.9869C132.244 35.017 134.141 34.4581 135.749 33.3846C136.866 32.6561 138.372 33.336 138.955 34.5014C139.538 35.7152 138.906 36.9777 137.789 37.7059C134.584 39.8424 132.107 39.7939 130.31 39.7939C127.078 39.7927 123.979 38.5081 121.694 36.2226C119.409 33.9372 118.125 30.8379 118.125 27.6064C118.125 24.3749 119.409 21.2756 121.694 18.9902C123.979 16.7047 127.078 15.4201 130.31 15.4189C136.187 15.4189 142.5 19.6918 142.5 27.6063ZM123.317 25.1787H137.352C136.332 21.7797 133.224 20.2259 130.31 20.2259C128.776 20.2276 127.279 20.7047 126.027 21.5916C124.774 22.4786 123.828 23.7317 123.317 25.1787Z" fill="#281E15"/>
<path d="M204.375 27.9624V37.3891C204.375 38.7838 203.349 39.7939 201.933 39.7939C200.956 39.7939 199.588 38.7838 199.588 37.3891C197.488 39.1206 195.143 39.7939 192.359 39.7939C185.471 39.7939 180 34.7439 180 27.9624C179.99 26.3616 180.302 24.7746 180.92 23.2937C181.537 21.8127 182.447 20.4672 183.597 19.3352C184.746 18.2032 186.113 17.3073 187.617 16.6995C189.121 16.0916 190.733 15.7839 192.359 15.7942C199.246 15.7942 204.375 21.1809 204.375 27.9624ZM199.588 27.9624C199.588 23.9223 196.462 20.5076 192.359 20.5076C188.255 20.5076 184.787 23.9223 184.787 27.9624C184.787 32.0025 188.255 35.0806 192.359 35.0806C196.462 35.0806 199.588 32.0025 199.588 27.9624Z" fill="#A5795B"/>
<path d="M221.625 17.7984C221.623 18.4417 221.367 19.0582 220.911 19.513C220.456 19.9679 219.839 20.2243 219.196 20.2262C218.226 20.2257 217.265 20.4163 216.369 20.7871C215.473 21.1578 214.658 21.7014 213.972 22.3868C213.287 23.0722 212.743 23.886 212.372 24.7816C212.001 25.6772 211.81 26.6371 211.81 27.6064V37.3657C211.814 37.6834 211.754 37.9986 211.634 38.2931C211.515 38.5875 211.338 38.8554 211.115 39.0812C210.891 39.307 210.625 39.4863 210.331 39.6086C210.038 39.731 209.723 39.7939 209.405 39.7939C209.087 39.7939 208.772 39.731 208.479 39.6086C208.186 39.4863 207.919 39.307 207.696 39.0812C207.472 38.8554 207.295 38.5875 207.176 38.2931C207.057 37.9986 206.997 37.6834 207 37.3657V27.6064C207.002 24.3748 208.288 21.2761 210.574 18.991C212.861 16.7059 215.962 15.4213 219.196 15.4192C219.512 15.4147 219.826 15.4728 220.119 15.5902C220.413 15.7076 220.68 15.8819 220.906 16.1031C221.132 16.3243 221.312 16.588 221.435 16.879C221.559 17.1699 221.623 17.4824 221.625 17.7984Z" fill="#A5795B"/>
<path d="M246 27.6063C245.998 27.9223 245.934 28.2348 245.81 28.5258C245.687 28.8168 245.507 29.0805 245.282 29.3017C245.056 29.5229 244.789 29.6972 244.495 29.8146C244.202 29.932 243.888 29.9901 243.572 29.9856H226.82C227.32 31.4434 228.262 32.7089 229.516 33.6054C230.769 34.502 232.271 34.985 233.812 34.9869C235.746 35.017 237.643 34.4581 239.251 33.3846C240.368 32.6561 241.873 33.336 242.455 34.5014C243.038 35.7152 242.407 36.9777 241.29 37.7059C238.085 39.8424 235.609 39.7939 233.812 39.7939C230.58 39.7939 227.48 38.5098 225.195 36.2242C222.909 33.9386 221.625 30.8387 221.625 27.6064C221.625 24.3741 222.909 21.2742 225.195 18.9886C227.48 16.703 230.58 15.4189 233.812 15.4189C239.688 15.4189 246 19.6918 246 27.6063ZM226.82 25.1787H240.853C239.833 21.7797 236.726 20.2259 233.812 20.2259C232.278 20.2276 230.782 20.7047 229.53 21.5916C228.278 22.4786 227.331 23.7317 226.82 25.1787Z" fill="#A5795B"/>
<path d="M145.875 23.0154C145.875 13.5172 153.643 6.04395 162.906 6.04395C168.985 6.04395 174.437 9.17782 177.332 14.3851C178.2 15.8314 177.621 17.3262 176.463 17.8565C175.354 18.435 173.858 18.1458 173.279 16.9887C171.012 13.2278 167.2 10.9618 162.906 10.9618C156.296 10.9618 150.796 16.41 150.796 23.0154C150.796 29.669 156.296 34.8761 162.906 34.8761C164.912 34.8703 166.884 34.3646 168.645 33.4049C170.406 32.4451 171.899 31.0616 172.99 29.3797C173.569 28.2226 175.354 27.9333 176.174 28.8011C177.332 29.3797 177.911 30.8743 177.042 31.9833C173.858 36.9011 168.696 39.7939 162.906 39.7939C153.643 39.7939 145.875 32.2726 145.875 23.0154Z" fill="#A5795B"/>
<path d="M158.625 3.05037C154.453 4.05375 150.722 6.42338 148.007 9.79395C147.152 8.46094 146.824 6.84878 147.09 5.28069C147.356 3.7126 148.195 2.3045 149.44 1.33867C150.684 0.372846 152.242 -0.0793063 153.801 0.0728679C155.36 0.225042 156.805 0.970297 157.846 2.15921L158.625 3.05037Z" fill="#FFBC74"/>
<path d="M179.25 6.0997C179.251 7.27891 178.899 8.43276 178.236 9.41895C175.415 6.1423 171.545 3.88587 167.25 3.01254L168.906 1.57524C169.801 0.799152 170.907 0.291825 172.091 0.11433C173.275 -0.0631641 174.487 0.0967398 175.58 0.574788C176.672 1.05284 177.6 1.82865 178.252 2.80885C178.903 3.78905 179.249 4.93186 179.25 6.0997Z" fill="#FFBC74"/>
<path d="M155.098 35.3984L155.098 35.3984C154.438 34.8793 153.482 34.9937 152.963 35.6538L150.061 39.3438C149.542 40.004 149.656 40.9599 150.316 41.479L150.316 41.4791C150.977 41.9982 151.933 41.8838 152.452 41.2236L155.353 37.5337C155.872 36.8735 155.758 35.9175 155.098 35.3984Z" fill="#A5795B"/>
<path d="M171.427 35.6539C170.907 34.9937 169.951 34.8793 169.291 35.3984C168.631 35.9176 168.517 36.8735 169.036 37.5337L171.937 41.2237C172.457 41.8838 173.412 41.9982 174.073 41.4791C174.733 40.96 174.847 40.004 174.328 39.3438L171.427 35.6539Z" fill="#A5795B"/>
<path d="M168.193 27.0417L164.426 24.7653C163.943 24.474 163.316 24.6287 163.025 25.111L163.025 25.111C162.734 25.5932 162.888 26.2204 163.371 26.5117L167.138 28.7881C167.62 29.0794 168.248 28.9247 168.539 28.4424L168.539 28.4424C168.83 27.9602 168.676 27.3331 168.193 27.0417Z" fill="#281E15"/>
<path d="M163.5 23.3897V15.6982C163.5 15.1298 162.996 14.6689 162.375 14.6689C161.754 14.6689 161.25 15.1298 161.25 15.6982V23.3897C161.25 23.9581 161.754 24.4189 162.375 24.4189C162.996 24.4189 163.5 23.9581 163.5 23.3897Z" fill="#281E15"/>
<path d="M162.562 27.4189C163.909 27.4189 165 26.3276 165 24.9814C165 23.6352 163.909 22.5439 162.562 22.5439C161.216 22.5439 160.125 23.6352 160.125 24.9814C160.125 26.3276 161.216 27.4189 162.562 27.4189Z" fill="#281E15"/>
</svg>
