<svg width="13" height="13" viewBox="0 0 13 13" fill="none" xmlns="http://www.w3.org/2000/svg">
<g clip-path="url(#clip0_34_5605)">
<path d="M12.1515 6.42426L12.5757 6.84852L13 6.42426L12.5757 6L12.1515 6.42426ZM7.57573 11.8486L12.5757 6.84852L11.7272 6L6.72721 11L7.57573 11.8486ZM12.5757 6L7.57573 1L6.72721 1.84852L11.7272 6.84852L12.5757 6Z" fill="#252329"/>
<path d="M5.87852 6.42426L6.30278 6.84852L6.72705 6.42426L6.30278 6L5.87852 6.42426ZM1.30282 11.8486L6.30278 6.84852L5.45426 6L0.454221 11L1.30282 11.8486ZM6.30278 6L1.30282 1L0.454221 1.84852L5.45426 6.84852L6.30278 6Z" fill="#252329"/>
</g>
<defs>
<clipPath id="clip0_34_5605">
<rect width="12.5456" height="12.8486" fill="white" transform="matrix(-1 0 0 1 13 0)"/>
</clipPath>
</defs>
</svg>
