<svg width="13" height="13" viewBox="0 0 13 13" fill="none" xmlns="http://www.w3.org/2000/svg">
<g clip-path="url(#clip0_34_5605)">
<path d="M1.30312 6.42426L0.878854 6.84852L0.45459 6.42426L0.878854 6L1.30312 6.42426ZM5.87886 11.8486L0.878854 6.84852L1.72738 6L6.72738 11L5.87886 11.8486ZM0.878854 6L5.87886 1L6.72738 1.84852L1.72738 6.84852L0.878854 6Z" fill="#252329"/>
<path d="M7.57607 6.42426L7.15181 6.84852L6.72754 6.42426L7.15181 6L7.57607 6.42426ZM12.1518 11.8486L7.15181 6.84852L8.00033 6L13.0004 11L12.1518 11.8486ZM7.15181 6L12.1518 1L13.0004 1.84852L8.00033 6.84852L7.15181 6Z" fill="#252329"/>
</g>
<defs>
<clipPath id="clip0_34_5605">
<rect width="12.5456" height="12.8486" fill="white" transform="translate(0.45459)"/>
</clipPath>
</defs>
</svg>
