<svg id="bold" enable-background="new 0 0 24 24" height="512" viewBox="0 0 24 24" width="512" xmlns="http://www.w3.org/2000/svg"><path d="m8 0c-3.033 0-5.5 2.467-5.5 5.5v2.75c0 .965.785 1.75 1.75 1.75h3.75c-1.937 0-3.5-1.563-3.5-3.5 2.333 0 3.5-1.75 3.5-3.5 0 1.75 1.167 3.5 3.5 3.5 0 1.937-1.563 3.5-3.5 3.5h3.75c.965 0 1.75-.785 1.75-1.75v-2.75c0-3.033-2.467-5.5-5.5-5.5z"/><path d="m11.706 12h-7.956c-2.068 0-3.75 1.682-3.75 3.75v3.5c0 .414.336.75.75.75h9.156c-.938-2.839-.216-5.877 1.8-8z"/><path d="m17.5 11c-3.584 0-6.5 2.916-6.5 6.5s2.916 6.5 6.5 6.5 6.5-2.916 6.5-6.5-2.916-6.5-6.5-6.5zm0 1.5c1.108 0 2.123.374 2.953.987l-6.967 6.966c-.612-.83-.986-1.845-.986-2.953 0-2.757 2.243-5 5-5zm0 10c-1.108 0-2.123-.374-2.953-.987l6.967-6.966c.612.83.986 1.845.986 2.953 0 2.757-2.243 5-5 5z"/></svg>