<svg width="88" height="93" viewBox="0 0 88 93" fill="none" xmlns="http://www.w3.org/2000/svg">
<path d="M87.7847 70.5809C82.7252 63.8071 76.1554 58.3068 68.5975 54.517C61.0396 50.7273 52.7019 48.7527 44.2471 48.75C35.7923 48.7474 27.4534 50.7168 19.8931 54.5018C12.3329 58.2868 5.75962 63.783 0.695801 70.5536C5.73387 77.3586 12.2964 82.8884 19.8571 86.6996C27.4178 90.5108 35.7664 92.4974 44.2334 92.5001C52.7004 92.5027 61.0502 90.5214 68.6133 86.7149C76.1764 82.9084 82.7424 77.3827 87.7847 70.5809Z" fill="white"/>
<path d="M44.25 42.25C55.848 42.25 65.25 32.848 65.25 21.25C65.25 9.65202 55.848 0.25 44.25 0.25C32.652 0.25 23.25 9.65202 23.25 21.25C23.25 32.848 32.652 42.25 44.25 42.25Z" fill="white"/>
</svg>
